<mxfile host="Electron" agent="Mozilla/5.0 (Windows NT 10.0; Win64; x64) AppleWebKit/537.36 (KHTML, like Gecko) draw.io/24.7.17 Chrome/128.0.6613.36 Electron/32.0.1 Safari/537.36" version="24.7.17" pages="3">
  <diagram id="2GmR6CYDUHnXpNO-0Zck" name="EKD">
    <mxGraphModel dx="1500" dy="887" grid="1" gridSize="10" guides="1" tooltips="1" connect="1" arrows="1" fold="1" page="1" pageScale="1" pageWidth="2339" pageHeight="3300" math="0" shadow="0">
      <root>
        <mxCell id="0" />
        <mxCell id="1" parent="0" />
        <mxCell id="1tBRZ4auQCQ66RY45NHS-1" value="Vendég" style="whiteSpace=wrap;html=1;align=center;" vertex="1" parent="1">
          <mxGeometry x="260" y="200" width="100" height="40" as="geometry" />
        </mxCell>
        <mxCell id="1tBRZ4auQCQ66RY45NHS-2" value="teljes név" style="ellipse;whiteSpace=wrap;html=1;align=center;" vertex="1" parent="1">
          <mxGeometry x="80" y="100" width="100" height="40" as="geometry" />
        </mxCell>
        <mxCell id="1tBRZ4auQCQ66RY45NHS-3" value="azonosító" style="ellipse;whiteSpace=wrap;html=1;align=center;fontStyle=4;" vertex="1" parent="1">
          <mxGeometry x="40" y="200" width="100" height="40" as="geometry" />
        </mxCell>
        <mxCell id="1tBRZ4auQCQ66RY45NHS-4" value="e-mail cím" style="ellipse;whiteSpace=wrap;html=1;align=center;" vertex="1" parent="1">
          <mxGeometry x="190" y="40" width="100" height="40" as="geometry" />
        </mxCell>
        <mxCell id="1tBRZ4auQCQ66RY45NHS-5" value="telefonszám" style="ellipse;whiteSpace=wrap;html=1;align=center;" vertex="1" parent="1">
          <mxGeometry x="340" y="70" width="100" height="40" as="geometry" />
        </mxCell>
        <mxCell id="1tBRZ4auQCQ66RY45NHS-6" value="" style="endArrow=none;html=1;rounded=0;" edge="1" parent="1" source="1tBRZ4auQCQ66RY45NHS-2" target="1tBRZ4auQCQ66RY45NHS-1">
          <mxGeometry relative="1" as="geometry">
            <mxPoint x="230" y="310" as="sourcePoint" />
            <mxPoint x="390" y="310" as="targetPoint" />
          </mxGeometry>
        </mxCell>
        <mxCell id="1tBRZ4auQCQ66RY45NHS-7" value="" style="endArrow=none;html=1;rounded=0;" edge="1" parent="1" source="1tBRZ4auQCQ66RY45NHS-3" target="1tBRZ4auQCQ66RY45NHS-1">
          <mxGeometry relative="1" as="geometry">
            <mxPoint x="201" y="128" as="sourcePoint" />
            <mxPoint x="297" y="210" as="targetPoint" />
          </mxGeometry>
        </mxCell>
        <mxCell id="1tBRZ4auQCQ66RY45NHS-8" value="" style="endArrow=none;html=1;rounded=0;" edge="1" parent="1" source="1tBRZ4auQCQ66RY45NHS-4" target="1tBRZ4auQCQ66RY45NHS-1">
          <mxGeometry relative="1" as="geometry">
            <mxPoint x="211" y="138" as="sourcePoint" />
            <mxPoint x="307" y="220" as="targetPoint" />
          </mxGeometry>
        </mxCell>
        <mxCell id="1tBRZ4auQCQ66RY45NHS-9" value="" style="endArrow=none;html=1;rounded=0;" edge="1" parent="1" source="1tBRZ4auQCQ66RY45NHS-5" target="1tBRZ4auQCQ66RY45NHS-1">
          <mxGeometry relative="1" as="geometry">
            <mxPoint x="221" y="148" as="sourcePoint" />
            <mxPoint x="317" y="230" as="targetPoint" />
          </mxGeometry>
        </mxCell>
        <mxCell id="1tBRZ4auQCQ66RY45NHS-10" value="" style="endArrow=none;html=1;rounded=0;" edge="1" parent="1" source="1tBRZ4auQCQ66RY45NHS-19" target="1tBRZ4auQCQ66RY45NHS-1">
          <mxGeometry relative="1" as="geometry">
            <mxPoint x="500" y="220" as="sourcePoint" />
            <mxPoint x="332" y="210" as="targetPoint" />
          </mxGeometry>
        </mxCell>
        <mxCell id="1tBRZ4auQCQ66RY45NHS-11" value="Szoba" style="whiteSpace=wrap;html=1;align=center;" vertex="1" parent="1">
          <mxGeometry x="790" y="200" width="100" height="40" as="geometry" />
        </mxCell>
        <mxCell id="1tBRZ4auQCQ66RY45NHS-12" value="" style="endArrow=none;html=1;rounded=0;" edge="1" parent="1" source="1tBRZ4auQCQ66RY45NHS-11" target="1tBRZ4auQCQ66RY45NHS-19">
          <mxGeometry relative="1" as="geometry">
            <mxPoint x="510" y="230" as="sourcePoint" />
            <mxPoint x="620" y="220" as="targetPoint" />
          </mxGeometry>
        </mxCell>
        <mxCell id="1tBRZ4auQCQ66RY45NHS-13" value="száma" style="ellipse;whiteSpace=wrap;html=1;align=center;" vertex="1" parent="1">
          <mxGeometry x="800" y="50" width="100" height="40" as="geometry" />
        </mxCell>
        <mxCell id="1tBRZ4auQCQ66RY45NHS-14" value="azonosító" style="ellipse;whiteSpace=wrap;html=1;align=center;fontStyle=4;" vertex="1" parent="1">
          <mxGeometry x="670" y="100" width="100" height="40" as="geometry" />
        </mxCell>
        <mxCell id="1tBRZ4auQCQ66RY45NHS-15" value="üzemben&lt;br&gt;van-e" style="ellipse;whiteSpace=wrap;html=1;align=center;" vertex="1" parent="1">
          <mxGeometry x="950" y="100" width="100" height="40" as="geometry" />
        </mxCell>
        <mxCell id="1tBRZ4auQCQ66RY45NHS-16" value="" style="endArrow=none;html=1;rounded=0;" edge="1" parent="1" source="1tBRZ4auQCQ66RY45NHS-11" target="1tBRZ4auQCQ66RY45NHS-14">
          <mxGeometry relative="1" as="geometry">
            <mxPoint x="800" y="230" as="sourcePoint" />
            <mxPoint x="630" y="230" as="targetPoint" />
          </mxGeometry>
        </mxCell>
        <mxCell id="1tBRZ4auQCQ66RY45NHS-17" value="" style="endArrow=none;html=1;rounded=0;" edge="1" parent="1" source="1tBRZ4auQCQ66RY45NHS-11" target="1tBRZ4auQCQ66RY45NHS-13">
          <mxGeometry relative="1" as="geometry">
            <mxPoint x="810" y="240" as="sourcePoint" />
            <mxPoint x="640" y="240" as="targetPoint" />
          </mxGeometry>
        </mxCell>
        <mxCell id="1tBRZ4auQCQ66RY45NHS-18" value="" style="endArrow=none;html=1;rounded=0;" edge="1" parent="1" source="1tBRZ4auQCQ66RY45NHS-11" target="1tBRZ4auQCQ66RY45NHS-15">
          <mxGeometry relative="1" as="geometry">
            <mxPoint x="851" y="210" as="sourcePoint" />
            <mxPoint x="859" y="100" as="targetPoint" />
          </mxGeometry>
        </mxCell>
        <mxCell id="1tBRZ4auQCQ66RY45NHS-19" value="lefoglalja" style="shape=rhombus;perimeter=rhombusPerimeter;whiteSpace=wrap;html=1;align=center;" vertex="1" parent="1">
          <mxGeometry x="500" y="190" width="120" height="60" as="geometry" />
        </mxCell>
        <mxCell id="1tBRZ4auQCQ66RY45NHS-20" value="Szobatípus" style="whiteSpace=wrap;html=1;align=center;" vertex="1" parent="1">
          <mxGeometry x="790" y="470" width="100" height="40" as="geometry" />
        </mxCell>
        <mxCell id="1tBRZ4auQCQ66RY45NHS-21" value="tartozik" style="shape=rhombus;perimeter=rhombusPerimeter;whiteSpace=wrap;html=1;align=center;" vertex="1" parent="1">
          <mxGeometry x="780" y="320" width="120" height="60" as="geometry" />
        </mxCell>
        <mxCell id="1tBRZ4auQCQ66RY45NHS-22" value="" style="endArrow=none;html=1;rounded=0;" edge="1" parent="1" source="1tBRZ4auQCQ66RY45NHS-11" target="1tBRZ4auQCQ66RY45NHS-21">
          <mxGeometry relative="1" as="geometry">
            <mxPoint x="882" y="210" as="sourcePoint" />
            <mxPoint x="983" y="147" as="targetPoint" />
          </mxGeometry>
        </mxCell>
        <mxCell id="1tBRZ4auQCQ66RY45NHS-23" value="" style="endArrow=none;html=1;rounded=0;" edge="1" parent="1" source="1tBRZ4auQCQ66RY45NHS-21" target="1tBRZ4auQCQ66RY45NHS-20">
          <mxGeometry relative="1" as="geometry">
            <mxPoint x="850" y="190" as="sourcePoint" />
            <mxPoint x="850" y="330" as="targetPoint" />
          </mxGeometry>
        </mxCell>
        <mxCell id="1tBRZ4auQCQ66RY45NHS-24" value="azonosító" style="ellipse;whiteSpace=wrap;html=1;align=center;fontStyle=4;" vertex="1" parent="1">
          <mxGeometry x="650" y="570" width="100" height="40" as="geometry" />
        </mxCell>
        <mxCell id="1tBRZ4auQCQ66RY45NHS-25" value="típusnév" style="ellipse;whiteSpace=wrap;html=1;align=center;" vertex="1" parent="1">
          <mxGeometry x="750" y="630" width="100" height="40" as="geometry" />
        </mxCell>
        <mxCell id="1tBRZ4auQCQ66RY45NHS-26" value="leírás" style="ellipse;whiteSpace=wrap;html=1;align=center;" vertex="1" parent="1">
          <mxGeometry x="880" y="610" width="100" height="40" as="geometry" />
        </mxCell>
        <mxCell id="1tBRZ4auQCQ66RY45NHS-27" value="napi ár" style="ellipse;whiteSpace=wrap;html=1;align=center;" vertex="1" parent="1">
          <mxGeometry x="1000" y="570" width="100" height="40" as="geometry" />
        </mxCell>
        <mxCell id="1tBRZ4auQCQ66RY45NHS-28" value="" style="endArrow=none;html=1;rounded=0;" edge="1" parent="1" source="1tBRZ4auQCQ66RY45NHS-20" target="1tBRZ4auQCQ66RY45NHS-27">
          <mxGeometry relative="1" as="geometry">
            <mxPoint x="560" y="530" as="sourcePoint" />
            <mxPoint x="1090" y="520" as="targetPoint" />
          </mxGeometry>
        </mxCell>
        <mxCell id="1tBRZ4auQCQ66RY45NHS-29" value="" style="endArrow=none;html=1;rounded=0;" edge="1" parent="1" source="1tBRZ4auQCQ66RY45NHS-20" target="1tBRZ4auQCQ66RY45NHS-26">
          <mxGeometry relative="1" as="geometry">
            <mxPoint x="813" y="520" as="sourcePoint" />
            <mxPoint x="679" y="593" as="targetPoint" />
          </mxGeometry>
        </mxCell>
        <mxCell id="1tBRZ4auQCQ66RY45NHS-30" value="" style="endArrow=none;html=1;rounded=0;" edge="1" parent="1" source="1tBRZ4auQCQ66RY45NHS-20" target="1tBRZ4auQCQ66RY45NHS-25">
          <mxGeometry relative="1" as="geometry">
            <mxPoint x="823" y="530" as="sourcePoint" />
            <mxPoint x="689" y="603" as="targetPoint" />
          </mxGeometry>
        </mxCell>
        <mxCell id="1tBRZ4auQCQ66RY45NHS-31" value="" style="endArrow=none;html=1;rounded=0;" edge="1" parent="1" source="1tBRZ4auQCQ66RY45NHS-20" target="1tBRZ4auQCQ66RY45NHS-24">
          <mxGeometry relative="1" as="geometry">
            <mxPoint x="858" y="520" as="sourcePoint" />
            <mxPoint x="912" y="650" as="targetPoint" />
          </mxGeometry>
        </mxCell>
        <mxCell id="1tBRZ4auQCQ66RY45NHS-32" value="elfogadja" style="shape=rhombus;perimeter=rhombusPerimeter;whiteSpace=wrap;html=1;align=center;" vertex="1" parent="1">
          <mxGeometry x="220" y="310" width="120" height="60" as="geometry" />
        </mxCell>
        <mxCell id="1tBRZ4auQCQ66RY45NHS-33" value="" style="endArrow=none;html=1;rounded=0;" edge="1" parent="1" source="1tBRZ4auQCQ66RY45NHS-32" target="1tBRZ4auQCQ66RY45NHS-1">
          <mxGeometry relative="1" as="geometry">
            <mxPoint x="150" y="230" as="sourcePoint" />
            <mxPoint x="270" y="230" as="targetPoint" />
          </mxGeometry>
        </mxCell>
        <mxCell id="1tBRZ4auQCQ66RY45NHS-34" value="felhasználónév" style="ellipse;whiteSpace=wrap;html=1;align=center;" vertex="1" parent="1">
          <mxGeometry x="50" y="650" width="100" height="40" as="geometry" />
        </mxCell>
        <mxCell id="1tBRZ4auQCQ66RY45NHS-35" value="azonosító" style="ellipse;whiteSpace=wrap;html=1;align=center;fontStyle=4;" vertex="1" parent="1">
          <mxGeometry x="40" y="570" width="100" height="40" as="geometry" />
        </mxCell>
        <mxCell id="1tBRZ4auQCQ66RY45NHS-36" value="Dolgozó" style="whiteSpace=wrap;html=1;align=center;" vertex="1" parent="1">
          <mxGeometry x="230" y="480" width="100" height="40" as="geometry" />
        </mxCell>
        <mxCell id="1tBRZ4auQCQ66RY45NHS-37" value="" style="endArrow=none;html=1;rounded=0;" edge="1" parent="1" source="1tBRZ4auQCQ66RY45NHS-36" target="1tBRZ4auQCQ66RY45NHS-32">
          <mxGeometry relative="1" as="geometry">
            <mxPoint x="180" y="500" as="sourcePoint" />
            <mxPoint x="340" y="500" as="targetPoint" />
          </mxGeometry>
        </mxCell>
        <mxCell id="1tBRZ4auQCQ66RY45NHS-38" value="e-mail cím" style="ellipse;whiteSpace=wrap;html=1;align=center;" vertex="1" parent="1">
          <mxGeometry x="140" y="710" width="100" height="40" as="geometry" />
        </mxCell>
        <mxCell id="1tBRZ4auQCQ66RY45NHS-39" value="teljes név" style="ellipse;whiteSpace=wrap;html=1;align=center;" vertex="1" parent="1">
          <mxGeometry x="270" y="730" width="100" height="40" as="geometry" />
        </mxCell>
        <mxCell id="1tBRZ4auQCQ66RY45NHS-40" value="jelszó" style="ellipse;whiteSpace=wrap;html=1;align=center;" vertex="1" parent="1">
          <mxGeometry x="370" y="680" width="100" height="40" as="geometry" />
        </mxCell>
        <mxCell id="1tBRZ4auQCQ66RY45NHS-41" value="rang" style="ellipse;whiteSpace=wrap;html=1;align=center;" vertex="1" parent="1">
          <mxGeometry x="430" y="600" width="100" height="40" as="geometry" />
        </mxCell>
        <mxCell id="1tBRZ4auQCQ66RY45NHS-42" value="felveszi" style="shape=rhombus;perimeter=rhombusPerimeter;whiteSpace=wrap;html=1;align=center;" vertex="1" parent="1">
          <mxGeometry x="410" y="470" width="120" height="60" as="geometry" />
        </mxCell>
        <mxCell id="1tBRZ4auQCQ66RY45NHS-43" value="" style="endArrow=none;html=1;rounded=0;" edge="1" parent="1" source="1tBRZ4auQCQ66RY45NHS-42" target="1tBRZ4auQCQ66RY45NHS-36">
          <mxGeometry relative="1" as="geometry">
            <mxPoint x="253" y="490" as="sourcePoint" />
            <mxPoint x="266" y="378" as="targetPoint" />
          </mxGeometry>
        </mxCell>
        <mxCell id="1tBRZ4auQCQ66RY45NHS-44" value="" style="endArrow=classic;html=1;rounded=0;endFill=1;entryX=0.75;entryY=0;entryDx=0;entryDy=0;" edge="1" parent="1" source="1tBRZ4auQCQ66RY45NHS-42" target="1tBRZ4auQCQ66RY45NHS-36">
          <mxGeometry relative="1" as="geometry">
            <mxPoint x="390" y="430" as="sourcePoint" />
            <mxPoint x="340" y="470" as="targetPoint" />
            <Array as="points">
              <mxPoint x="470" y="420" />
              <mxPoint x="305" y="420" />
            </Array>
          </mxGeometry>
        </mxCell>
        <mxCell id="1tBRZ4auQCQ66RY45NHS-45" value="" style="endArrow=none;html=1;rounded=0;" edge="1" parent="1" source="1tBRZ4auQCQ66RY45NHS-35" target="1tBRZ4auQCQ66RY45NHS-36">
          <mxGeometry relative="1" as="geometry">
            <mxPoint x="420" y="510" as="sourcePoint" />
            <mxPoint x="340" y="510" as="targetPoint" />
          </mxGeometry>
        </mxCell>
        <mxCell id="1tBRZ4auQCQ66RY45NHS-46" value="" style="endArrow=none;html=1;rounded=0;" edge="1" parent="1" source="1tBRZ4auQCQ66RY45NHS-34" target="1tBRZ4auQCQ66RY45NHS-36">
          <mxGeometry relative="1" as="geometry">
            <mxPoint x="430" y="520" as="sourcePoint" />
            <mxPoint x="350" y="520" as="targetPoint" />
          </mxGeometry>
        </mxCell>
        <mxCell id="1tBRZ4auQCQ66RY45NHS-47" value="" style="endArrow=none;html=1;rounded=0;" edge="1" parent="1" source="1tBRZ4auQCQ66RY45NHS-38" target="1tBRZ4auQCQ66RY45NHS-36">
          <mxGeometry relative="1" as="geometry">
            <mxPoint x="440" y="530" as="sourcePoint" />
            <mxPoint x="360" y="530" as="targetPoint" />
          </mxGeometry>
        </mxCell>
        <mxCell id="1tBRZ4auQCQ66RY45NHS-48" value="" style="endArrow=none;html=1;rounded=0;" edge="1" parent="1" source="1tBRZ4auQCQ66RY45NHS-39" target="1tBRZ4auQCQ66RY45NHS-36">
          <mxGeometry relative="1" as="geometry">
            <mxPoint x="450" y="540" as="sourcePoint" />
            <mxPoint x="370" y="540" as="targetPoint" />
          </mxGeometry>
        </mxCell>
        <mxCell id="1tBRZ4auQCQ66RY45NHS-49" value="" style="endArrow=none;html=1;rounded=0;" edge="1" parent="1" source="1tBRZ4auQCQ66RY45NHS-40" target="1tBRZ4auQCQ66RY45NHS-36">
          <mxGeometry relative="1" as="geometry">
            <mxPoint x="460" y="550" as="sourcePoint" />
            <mxPoint x="380" y="550" as="targetPoint" />
          </mxGeometry>
        </mxCell>
        <mxCell id="1tBRZ4auQCQ66RY45NHS-50" value="" style="endArrow=none;html=1;rounded=0;" edge="1" parent="1" source="1tBRZ4auQCQ66RY45NHS-41" target="1tBRZ4auQCQ66RY45NHS-36">
          <mxGeometry relative="1" as="geometry">
            <mxPoint x="470" y="560" as="sourcePoint" />
            <mxPoint x="390" y="560" as="targetPoint" />
          </mxGeometry>
        </mxCell>
        <mxCell id="1tBRZ4auQCQ66RY45NHS-51" value="Egyed" style="whiteSpace=wrap;html=1;align=center;" vertex="1" parent="1">
          <mxGeometry x="1000" y="315" width="100" height="40" as="geometry" />
        </mxCell>
        <mxCell id="1tBRZ4auQCQ66RY45NHS-52" value="Egyedek közti&lt;br&gt;kapcsolat" style="shape=rhombus;perimeter=rhombusPerimeter;whiteSpace=wrap;html=1;align=center;" vertex="1" parent="1">
          <mxGeometry x="985.5" y="235" width="130" height="70" as="geometry" />
        </mxCell>
        <mxCell id="1tBRZ4auQCQ66RY45NHS-53" value="Attribútum" style="ellipse;whiteSpace=wrap;html=1;align=center;" vertex="1" parent="1">
          <mxGeometry x="1000" y="375" width="100" height="40" as="geometry" />
        </mxCell>
        <mxCell id="1tBRZ4auQCQ66RY45NHS-54" value="&lt;font style=&quot;font-size: 24px;&quot;&gt;Jelmagyarázat&lt;/font&gt;" style="text;html=1;align=center;verticalAlign=middle;resizable=0;points=[];autosize=1;strokeColor=none;fillColor=none;" vertex="1" parent="1">
          <mxGeometry x="960" y="185" width="180" height="40" as="geometry" />
        </mxCell>
        <mxCell id="1tBRZ4auQCQ66RY45NHS-55" value="" style="endArrow=classic;html=1;rounded=0;endFill=1;" edge="1" parent="1">
          <mxGeometry relative="1" as="geometry">
            <mxPoint x="1084.5" y="465" as="sourcePoint" />
            <mxPoint x="1084.5" y="515" as="targetPoint" />
            <Array as="points">
              <mxPoint x="1014.5" y="465" />
              <mxPoint x="1014.5" y="515" />
            </Array>
          </mxGeometry>
        </mxCell>
        <mxCell id="1tBRZ4auQCQ66RY45NHS-56" value="Rekurzív&lt;br&gt;kapcsolat" style="text;html=1;align=center;verticalAlign=middle;resizable=0;points=[];autosize=1;strokeColor=none;fillColor=none;" vertex="1" parent="1">
          <mxGeometry x="1015.5" y="470" width="70" height="40" as="geometry" />
        </mxCell>
        <mxCell id="1tBRZ4auQCQ66RY45NHS-57" value="" style="endArrow=none;html=1;rounded=0;" edge="1" parent="1">
          <mxGeometry relative="1" as="geometry">
            <mxPoint x="1090" y="455" as="sourcePoint" />
            <mxPoint x="1010" y="455" as="targetPoint" />
          </mxGeometry>
        </mxCell>
        <mxCell id="1tBRZ4auQCQ66RY45NHS-58" value="Kapcsolat" style="text;html=1;align=center;verticalAlign=middle;resizable=0;points=[];autosize=1;strokeColor=none;fillColor=none;" vertex="1" parent="1">
          <mxGeometry x="1010" y="425" width="80" height="30" as="geometry" />
        </mxCell>
      </root>
    </mxGraphModel>
  </diagram>
  <diagram name="Tábla EKD" id="osthFVFoLzH-frokFGTB">
    <mxGraphModel dx="600" dy="355" grid="1" gridSize="10" guides="1" tooltips="1" connect="1" arrows="1" fold="1" page="1" pageScale="1" pageWidth="827" pageHeight="1169" math="0" shadow="0">
      <root>
        <mxCell id="0" />
        <mxCell id="1" parent="0" />
        <mxCell id="wH6veG9tBR207DiI4e0H-1" value="User" style="swimlane;childLayout=stackLayout;horizontal=1;startSize=50;horizontalStack=0;rounded=1;fontSize=14;fontStyle=0;strokeWidth=2;resizeParent=0;resizeLast=1;shadow=0;dashed=0;align=center;arcSize=4;whiteSpace=wrap;html=1;" parent="1" vertex="1">
          <mxGeometry x="400" y="110" width="160" height="180" as="geometry" />
        </mxCell>
        <mxCell id="wH6veG9tBR207DiI4e0H-2" value="&lt;div&gt;# id&lt;br&gt;* name&lt;/div&gt;* username&lt;div&gt;* email&lt;/div&gt;&lt;div&gt;* password&lt;/div&gt;&lt;div&gt;* role&lt;/div&gt;&lt;div&gt;o enrolled_by&lt;/div&gt;" style="align=left;strokeColor=none;fillColor=none;spacingLeft=4;fontSize=12;verticalAlign=top;resizable=0;rotatable=0;part=1;html=1;" parent="wH6veG9tBR207DiI4e0H-1" vertex="1">
          <mxGeometry y="50" width="160" height="130" as="geometry" />
        </mxCell>
        <mxCell id="P9Y3geR8CQ99SFIAazWg-3" style="edgeStyle=orthogonalEdgeStyle;rounded=0;orthogonalLoop=1;jettySize=auto;html=1;exitX=1;exitY=0.25;exitDx=0;exitDy=0;endArrow=ERmany;endFill=0;startArrow=ERzeroToOne;startFill=0;entryX=0.5;entryY=0;entryDx=0;entryDy=0;" parent="wH6veG9tBR207DiI4e0H-1" source="wH6veG9tBR207DiI4e0H-2" target="wH6veG9tBR207DiI4e0H-1" edge="1">
          <mxGeometry relative="1" as="geometry">
            <mxPoint x="185" y="-50" as="sourcePoint" />
            <mxPoint x="120" y="-50" as="targetPoint" />
            <Array as="points">
              <mxPoint x="185" y="82" />
              <mxPoint x="185" y="-30" />
              <mxPoint x="80" y="-30" />
            </Array>
          </mxGeometry>
        </mxCell>
        <mxCell id="wH6veG9tBR207DiI4e0H-3" value="Customer" style="swimlane;childLayout=stackLayout;horizontal=1;startSize=50;horizontalStack=0;rounded=1;fontSize=14;fontStyle=0;strokeWidth=2;resizeParent=0;resizeLast=1;shadow=0;dashed=0;align=center;arcSize=4;whiteSpace=wrap;html=1;" parent="1" vertex="1">
          <mxGeometry x="165" y="110" width="170" height="180" as="geometry" />
        </mxCell>
        <mxCell id="wH6veG9tBR207DiI4e0H-4" value="&lt;div&gt;# id&lt;/div&gt;* name&lt;div&gt;* birthdate&lt;/div&gt;&lt;div&gt;* email&lt;/div&gt;&lt;div&gt;* mobile_number&lt;/div&gt;&lt;div&gt;* banned&lt;/div&gt;" style="align=left;strokeColor=none;fillColor=none;spacingLeft=4;fontSize=12;verticalAlign=top;resizable=0;rotatable=0;part=1;html=1;" parent="wH6veG9tBR207DiI4e0H-3" vertex="1">
          <mxGeometry y="50" width="170" height="130" as="geometry" />
        </mxCell>
        <mxCell id="wH6veG9tBR207DiI4e0H-5" value="Room" style="swimlane;childLayout=stackLayout;horizontal=1;startSize=50;horizontalStack=0;rounded=1;fontSize=14;fontStyle=0;strokeWidth=2;resizeParent=0;resizeLast=1;shadow=0;dashed=0;align=center;arcSize=4;whiteSpace=wrap;html=1;" parent="1" vertex="1">
          <mxGeometry x="400" y="330" width="160" height="160" as="geometry" />
        </mxCell>
        <mxCell id="wH6veG9tBR207DiI4e0H-6" value="&lt;div&gt;# id&lt;/div&gt;* number&lt;div&gt;* is_in_order&lt;/div&gt;&lt;div&gt;o description&lt;/div&gt;" style="align=left;strokeColor=none;fillColor=none;spacingLeft=4;fontSize=12;verticalAlign=top;resizable=0;rotatable=0;part=1;html=1;" parent="wH6veG9tBR207DiI4e0H-5" vertex="1">
          <mxGeometry y="50" width="160" height="110" as="geometry" />
        </mxCell>
        <mxCell id="wH6veG9tBR207DiI4e0H-7" value="RoomType" style="swimlane;childLayout=stackLayout;horizontal=1;startSize=50;horizontalStack=0;rounded=1;fontSize=14;fontStyle=0;strokeWidth=2;resizeParent=0;resizeLast=1;shadow=0;dashed=0;align=center;arcSize=4;whiteSpace=wrap;html=1;" parent="1" vertex="1">
          <mxGeometry x="630" y="330" width="160" height="160" as="geometry" />
        </mxCell>
        <mxCell id="wH6veG9tBR207DiI4e0H-8" value="&lt;div&gt;# id&lt;/div&gt;* name: string&lt;div&gt;* beds: int&lt;div&gt;* daily_price&lt;/div&gt;&lt;/div&gt;&lt;div&gt;* description&lt;/div&gt;" style="align=left;strokeColor=none;fillColor=none;spacingLeft=4;fontSize=12;verticalAlign=top;resizable=0;rotatable=0;part=1;html=1;" parent="wH6veG9tBR207DiI4e0H-7" vertex="1">
          <mxGeometry y="50" width="160" height="110" as="geometry" />
        </mxCell>
        <mxCell id="wH6veG9tBR207DiI4e0H-9" style="edgeStyle=orthogonalEdgeStyle;rounded=0;orthogonalLoop=1;jettySize=auto;html=1;exitX=1;exitY=0.25;exitDx=0;exitDy=0;entryX=0;entryY=0.25;entryDx=0;entryDy=0;endArrow=ERone;endFill=0;startArrow=ERmany;startFill=0;" parent="1" source="wH6veG9tBR207DiI4e0H-6" target="wH6veG9tBR207DiI4e0H-8" edge="1">
          <mxGeometry relative="1" as="geometry" />
        </mxCell>
        <mxCell id="wH6veG9tBR207DiI4e0H-13" style="edgeStyle=orthogonalEdgeStyle;rounded=0;orthogonalLoop=1;jettySize=auto;html=1;startArrow=ERmany;startFill=0;endArrow=ERone;endFill=0;exitX=0;exitY=0.25;exitDx=0;exitDy=0;entryX=1;entryY=0.25;entryDx=0;entryDy=0;" parent="1" source="wH6veG9tBR207DiI4e0H-6" target="wdtJI4OaJ273M9B3KL6N-4" edge="1">
          <mxGeometry relative="1" as="geometry">
            <mxPoint x="330" y="530" as="sourcePoint" />
            <mxPoint x="350" y="380" as="targetPoint" />
          </mxGeometry>
        </mxCell>
        <mxCell id="wH6veG9tBR207DiI4e0H-14" style="edgeStyle=orthogonalEdgeStyle;rounded=0;orthogonalLoop=1;jettySize=auto;html=1;exitX=0.5;exitY=1;exitDx=0;exitDy=0;endArrow=ERmany;endFill=0;startArrow=ERzeroToOne;startFill=0;entryX=0.5;entryY=0;entryDx=0;entryDy=0;" parent="1" source="wH6veG9tBR207DiI4e0H-4" target="wdtJI4OaJ273M9B3KL6N-3" edge="1">
          <mxGeometry relative="1" as="geometry">
            <mxPoint x="250" y="340" as="targetPoint" />
          </mxGeometry>
        </mxCell>
        <mxCell id="iRjWYKLcKOD4x_D2rIXq-2" value="&lt;div style=&quot;text-align: center; margin-bottom: 10px;&quot;&gt;&lt;font style=&quot;font-size: 24px;&quot;&gt;Jelmagyarázat&lt;/font&gt;&lt;/div&gt;&lt;div&gt;&lt;b&gt;Attribútum:&lt;/b&gt;&lt;/div&gt;&lt;div&gt;# - Elsődleges kulcs&lt;/div&gt;&lt;div&gt;* - Kötelező&lt;br&gt;&lt;/div&gt;o - Nem kötelező&lt;div&gt;&lt;br&gt;&lt;/div&gt;&lt;div&gt;&lt;b&gt;Kapcsolat:&lt;/b&gt;&lt;br&gt;&lt;div&gt;&amp;nbsp; &amp;nbsp;- Egy elemű (kötelező)&lt;/div&gt;&lt;div&gt;&amp;nbsp; &amp;nbsp;- Egy elemű (nem kötelező)&lt;br&gt;&lt;/div&gt;&lt;div&gt;&amp;nbsp; &amp;nbsp;- Több elemű&lt;br&gt;&lt;/div&gt;&lt;div&gt;&lt;br&gt;&lt;/div&gt;&lt;/div&gt;" style="text;html=1;align=left;verticalAlign=middle;resizable=0;points=[];autosize=1;strokeColor=none;fillColor=none;rounded=1;labelBorderColor=none;textShadow=0;labelBackgroundColor=default;perimeterSpacing=0;strokeWidth=1;glass=0;" parent="1" vertex="1">
          <mxGeometry x="623" y="115" width="180" height="200" as="geometry" />
        </mxCell>
        <mxCell id="wdtJI4OaJ273M9B3KL6N-3" value="Reservation" style="swimlane;childLayout=stackLayout;horizontal=1;startSize=50;horizontalStack=0;rounded=1;fontSize=14;fontStyle=0;strokeWidth=2;resizeParent=0;resizeLast=1;shadow=0;dashed=0;align=center;arcSize=4;whiteSpace=wrap;html=1;" parent="1" vertex="1">
          <mxGeometry x="170" y="330" width="160" height="160" as="geometry" />
        </mxCell>
        <mxCell id="wdtJI4OaJ273M9B3KL6N-4" value="&lt;div&gt;# id&lt;/div&gt;&lt;div&gt;* requested_at&lt;/div&gt;&lt;div&gt;* start_date&lt;/div&gt;&lt;div&gt;* end_date&lt;/div&gt;&lt;div&gt;* price&lt;/div&gt;" style="align=left;strokeColor=none;fillColor=none;spacingLeft=4;fontSize=12;verticalAlign=top;resizable=0;rotatable=0;part=1;html=1;" parent="wdtJI4OaJ273M9B3KL6N-3" vertex="1">
          <mxGeometry y="50" width="160" height="110" as="geometry" />
        </mxCell>
        <mxCell id="P9Y3geR8CQ99SFIAazWg-2" style="edgeStyle=orthogonalEdgeStyle;rounded=0;orthogonalLoop=1;jettySize=auto;html=1;exitX=0;exitY=0.25;exitDx=0;exitDy=0;endArrow=ERmany;endFill=0;startArrow=ERzeroToOne;startFill=0;entryX=1;entryY=0.25;entryDx=0;entryDy=0;" parent="1" source="wH6veG9tBR207DiI4e0H-2" target="wH6veG9tBR207DiI4e0H-4" edge="1">
          <mxGeometry relative="1" as="geometry">
            <mxPoint x="260" y="300" as="sourcePoint" />
            <mxPoint x="350" y="200" as="targetPoint" />
          </mxGeometry>
        </mxCell>
        <mxCell id="ruXxaI2GSq1ZrcZCYmVq-1" style="edgeStyle=orthogonalEdgeStyle;rounded=0;orthogonalLoop=1;jettySize=auto;html=1;endArrow=none;endFill=0;startArrow=ERone;startFill=0;entryX=1;entryY=0.25;entryDx=0;entryDy=0;" edge="1" parent="1">
          <mxGeometry relative="1" as="geometry">
            <mxPoint x="631" y="257" as="sourcePoint" />
            <mxPoint x="611" y="257" as="targetPoint" />
          </mxGeometry>
        </mxCell>
        <mxCell id="ruXxaI2GSq1ZrcZCYmVq-2" style="edgeStyle=orthogonalEdgeStyle;rounded=0;orthogonalLoop=1;jettySize=auto;html=1;endArrow=none;endFill=0;startArrow=ERzeroToOne;startFill=0;entryX=1;entryY=0.25;entryDx=0;entryDy=0;" edge="1" parent="1">
          <mxGeometry relative="1" as="geometry">
            <mxPoint x="631" y="271" as="sourcePoint" />
            <mxPoint x="611" y="271" as="targetPoint" />
          </mxGeometry>
        </mxCell>
        <mxCell id="ruXxaI2GSq1ZrcZCYmVq-3" style="edgeStyle=orthogonalEdgeStyle;rounded=0;orthogonalLoop=1;jettySize=auto;html=1;endArrow=none;endFill=0;startArrow=ERmany;startFill=0;entryX=1;entryY=0.25;entryDx=0;entryDy=0;" edge="1" parent="1">
          <mxGeometry relative="1" as="geometry">
            <mxPoint x="630" y="286" as="sourcePoint" />
            <mxPoint x="610" y="286" as="targetPoint" />
          </mxGeometry>
        </mxCell>
      </root>
    </mxGraphModel>
  </diagram>
  <diagram id="9XFVV8bgtCl2-Ow_PorK" name="Fizikai Táblaterv">
    <mxGraphModel dx="1050" dy="621" grid="1" gridSize="10" guides="1" tooltips="1" connect="1" arrows="1" fold="1" page="1" pageScale="1" pageWidth="2339" pageHeight="3300" math="0" shadow="0">
      <root>
        <mxCell id="0" />
        <mxCell id="1" parent="0" />
        <mxCell id="EjmX-pRvO7xtQYIAAKBp-1" value="User" style="shape=table;startSize=30;container=1;collapsible=1;childLayout=tableLayout;fixedRows=1;rowLines=0;fontStyle=1;align=center;resizeLast=1;html=1;whiteSpace=wrap;" parent="1" vertex="1">
          <mxGeometry x="90" y="110" width="350" height="280" as="geometry" />
        </mxCell>
        <mxCell id="EjmX-pRvO7xtQYIAAKBp-2" value="" style="shape=tableRow;horizontal=0;startSize=0;swimlaneHead=0;swimlaneBody=0;fillColor=none;collapsible=0;dropTarget=0;points=[[0,0.5],[1,0.5]];portConstraint=eastwest;top=0;left=0;right=0;bottom=0;html=1;" parent="EjmX-pRvO7xtQYIAAKBp-1" vertex="1">
          <mxGeometry y="30" width="350" height="30" as="geometry" />
        </mxCell>
        <mxCell id="EjmX-pRvO7xtQYIAAKBp-3" value="PK" style="shape=partialRectangle;connectable=0;fillColor=none;top=0;left=0;bottom=0;right=0;fontStyle=1;overflow=hidden;html=1;whiteSpace=wrap;" parent="EjmX-pRvO7xtQYIAAKBp-2" vertex="1">
          <mxGeometry width="60" height="30" as="geometry">
            <mxRectangle width="60" height="30" as="alternateBounds" />
          </mxGeometry>
        </mxCell>
        <mxCell id="EjmX-pRvO7xtQYIAAKBp-4" value="id" style="shape=partialRectangle;connectable=0;fillColor=none;top=0;left=0;bottom=0;right=0;align=left;spacingLeft=6;fontStyle=5;overflow=hidden;html=1;whiteSpace=wrap;" parent="EjmX-pRvO7xtQYIAAKBp-2" vertex="1">
          <mxGeometry x="60" width="100" height="30" as="geometry">
            <mxRectangle width="100" height="30" as="alternateBounds" />
          </mxGeometry>
        </mxCell>
        <mxCell id="T5jJRAGALwiK5fhTE4Fy-1" value="INT" style="shape=partialRectangle;connectable=0;fillColor=none;top=0;left=0;bottom=0;right=0;align=left;spacingLeft=6;fontStyle=5;overflow=hidden;html=1;whiteSpace=wrap;" parent="EjmX-pRvO7xtQYIAAKBp-2" vertex="1">
          <mxGeometry x="160" width="90" height="30" as="geometry">
            <mxRectangle width="90" height="30" as="alternateBounds" />
          </mxGeometry>
        </mxCell>
        <mxCell id="T5jJRAGALwiK5fhTE4Fy-5" value="autoincrement" style="shape=partialRectangle;connectable=0;fillColor=none;top=0;left=0;bottom=0;right=0;align=left;spacingLeft=6;fontStyle=5;overflow=hidden;html=1;whiteSpace=wrap;" parent="EjmX-pRvO7xtQYIAAKBp-2" vertex="1">
          <mxGeometry x="250" width="100" height="30" as="geometry">
            <mxRectangle width="100" height="30" as="alternateBounds" />
          </mxGeometry>
        </mxCell>
        <mxCell id="EjmX-pRvO7xtQYIAAKBp-5" value="" style="shape=tableRow;horizontal=0;startSize=0;swimlaneHead=0;swimlaneBody=0;fillColor=none;collapsible=0;dropTarget=0;points=[[0,0.5],[1,0.5]];portConstraint=eastwest;top=0;left=0;right=0;bottom=1;html=1;" parent="EjmX-pRvO7xtQYIAAKBp-1" vertex="1">
          <mxGeometry y="60" width="350" height="30" as="geometry" />
        </mxCell>
        <mxCell id="EjmX-pRvO7xtQYIAAKBp-6" value="FK" style="shape=partialRectangle;connectable=0;fillColor=none;top=0;left=0;bottom=0;right=0;fontStyle=1;overflow=hidden;html=1;whiteSpace=wrap;" parent="EjmX-pRvO7xtQYIAAKBp-5" vertex="1">
          <mxGeometry width="60" height="30" as="geometry">
            <mxRectangle width="60" height="30" as="alternateBounds" />
          </mxGeometry>
        </mxCell>
        <mxCell id="EjmX-pRvO7xtQYIAAKBp-7" value="enrolled_by" style="shape=partialRectangle;connectable=0;fillColor=none;top=0;left=0;bottom=0;right=0;align=left;spacingLeft=6;fontStyle=5;overflow=hidden;html=1;whiteSpace=wrap;" parent="EjmX-pRvO7xtQYIAAKBp-5" vertex="1">
          <mxGeometry x="60" width="100" height="30" as="geometry">
            <mxRectangle width="100" height="30" as="alternateBounds" />
          </mxGeometry>
        </mxCell>
        <mxCell id="T5jJRAGALwiK5fhTE4Fy-2" value="INT" style="shape=partialRectangle;connectable=0;fillColor=none;top=0;left=0;bottom=0;right=0;align=left;spacingLeft=6;fontStyle=5;overflow=hidden;html=1;whiteSpace=wrap;" parent="EjmX-pRvO7xtQYIAAKBp-5" vertex="1">
          <mxGeometry x="160" width="90" height="30" as="geometry">
            <mxRectangle width="90" height="30" as="alternateBounds" />
          </mxGeometry>
        </mxCell>
        <mxCell id="T5jJRAGALwiK5fhTE4Fy-6" value="(aki felvette)" style="shape=partialRectangle;connectable=0;fillColor=none;top=0;left=0;bottom=0;right=0;align=left;spacingLeft=6;fontStyle=5;overflow=hidden;html=1;whiteSpace=wrap;" parent="EjmX-pRvO7xtQYIAAKBp-5" vertex="1">
          <mxGeometry x="250" width="100" height="30" as="geometry">
            <mxRectangle width="100" height="30" as="alternateBounds" />
          </mxGeometry>
        </mxCell>
        <mxCell id="EjmX-pRvO7xtQYIAAKBp-8" value="" style="shape=tableRow;horizontal=0;startSize=0;swimlaneHead=0;swimlaneBody=0;fillColor=none;collapsible=0;dropTarget=0;points=[[0,0.5],[1,0.5]];portConstraint=eastwest;top=0;left=0;right=0;bottom=0;html=1;" parent="EjmX-pRvO7xtQYIAAKBp-1" vertex="1">
          <mxGeometry y="90" width="350" height="30" as="geometry" />
        </mxCell>
        <mxCell id="EjmX-pRvO7xtQYIAAKBp-9" value="UK" style="shape=partialRectangle;connectable=0;fillColor=none;top=0;left=0;bottom=0;right=0;editable=1;overflow=hidden;html=1;whiteSpace=wrap;" parent="EjmX-pRvO7xtQYIAAKBp-8" vertex="1">
          <mxGeometry width="60" height="30" as="geometry">
            <mxRectangle width="60" height="30" as="alternateBounds" />
          </mxGeometry>
        </mxCell>
        <mxCell id="EjmX-pRvO7xtQYIAAKBp-10" value="email" style="shape=partialRectangle;connectable=0;fillColor=none;top=0;left=0;bottom=0;right=0;align=left;spacingLeft=6;overflow=hidden;html=1;whiteSpace=wrap;" parent="EjmX-pRvO7xtQYIAAKBp-8" vertex="1">
          <mxGeometry x="60" width="100" height="30" as="geometry">
            <mxRectangle width="100" height="30" as="alternateBounds" />
          </mxGeometry>
        </mxCell>
        <mxCell id="T5jJRAGALwiK5fhTE4Fy-3" value="VARCHAR" style="shape=partialRectangle;connectable=0;fillColor=none;top=0;left=0;bottom=0;right=0;align=left;spacingLeft=6;overflow=hidden;html=1;whiteSpace=wrap;" parent="EjmX-pRvO7xtQYIAAKBp-8" vertex="1">
          <mxGeometry x="160" width="90" height="30" as="geometry">
            <mxRectangle width="90" height="30" as="alternateBounds" />
          </mxGeometry>
        </mxCell>
        <mxCell id="T5jJRAGALwiK5fhTE4Fy-7" style="shape=partialRectangle;connectable=0;fillColor=none;top=0;left=0;bottom=0;right=0;align=left;spacingLeft=6;overflow=hidden;html=1;whiteSpace=wrap;" parent="EjmX-pRvO7xtQYIAAKBp-8" vertex="1">
          <mxGeometry x="250" width="100" height="30" as="geometry">
            <mxRectangle width="100" height="30" as="alternateBounds" />
          </mxGeometry>
        </mxCell>
        <mxCell id="EjmX-pRvO7xtQYIAAKBp-11" value="" style="shape=tableRow;horizontal=0;startSize=0;swimlaneHead=0;swimlaneBody=0;fillColor=none;collapsible=0;dropTarget=0;points=[[0,0.5],[1,0.5]];portConstraint=eastwest;top=0;left=0;right=0;bottom=0;html=1;" parent="EjmX-pRvO7xtQYIAAKBp-1" vertex="1">
          <mxGeometry y="120" width="350" height="30" as="geometry" />
        </mxCell>
        <mxCell id="EjmX-pRvO7xtQYIAAKBp-12" value="UK" style="shape=partialRectangle;connectable=0;fillColor=none;top=0;left=0;bottom=0;right=0;editable=1;overflow=hidden;html=1;whiteSpace=wrap;" parent="EjmX-pRvO7xtQYIAAKBp-11" vertex="1">
          <mxGeometry width="60" height="30" as="geometry">
            <mxRectangle width="60" height="30" as="alternateBounds" />
          </mxGeometry>
        </mxCell>
        <mxCell id="EjmX-pRvO7xtQYIAAKBp-13" value="username" style="shape=partialRectangle;connectable=0;fillColor=none;top=0;left=0;bottom=0;right=0;align=left;spacingLeft=6;overflow=hidden;html=1;whiteSpace=wrap;" parent="EjmX-pRvO7xtQYIAAKBp-11" vertex="1">
          <mxGeometry x="60" width="100" height="30" as="geometry">
            <mxRectangle width="100" height="30" as="alternateBounds" />
          </mxGeometry>
        </mxCell>
        <mxCell id="T5jJRAGALwiK5fhTE4Fy-4" value="VARCHAR" style="shape=partialRectangle;connectable=0;fillColor=none;top=0;left=0;bottom=0;right=0;align=left;spacingLeft=6;overflow=hidden;html=1;whiteSpace=wrap;" parent="EjmX-pRvO7xtQYIAAKBp-11" vertex="1">
          <mxGeometry x="160" width="90" height="30" as="geometry">
            <mxRectangle width="90" height="30" as="alternateBounds" />
          </mxGeometry>
        </mxCell>
        <mxCell id="T5jJRAGALwiK5fhTE4Fy-8" style="shape=partialRectangle;connectable=0;fillColor=none;top=0;left=0;bottom=0;right=0;align=left;spacingLeft=6;overflow=hidden;html=1;whiteSpace=wrap;" parent="EjmX-pRvO7xtQYIAAKBp-11" vertex="1">
          <mxGeometry x="250" width="100" height="30" as="geometry">
            <mxRectangle width="100" height="30" as="alternateBounds" />
          </mxGeometry>
        </mxCell>
        <mxCell id="T5jJRAGALwiK5fhTE4Fy-14" style="shape=tableRow;horizontal=0;startSize=0;swimlaneHead=0;swimlaneBody=0;fillColor=none;collapsible=0;dropTarget=0;points=[[0,0.5],[1,0.5]];portConstraint=eastwest;top=0;left=0;right=0;bottom=0;html=1;" parent="EjmX-pRvO7xtQYIAAKBp-1" vertex="1">
          <mxGeometry y="150" width="350" height="30" as="geometry" />
        </mxCell>
        <mxCell id="T5jJRAGALwiK5fhTE4Fy-15" style="shape=partialRectangle;connectable=0;fillColor=none;top=0;left=0;bottom=0;right=0;editable=1;overflow=hidden;html=1;whiteSpace=wrap;" parent="T5jJRAGALwiK5fhTE4Fy-14" vertex="1">
          <mxGeometry width="60" height="30" as="geometry">
            <mxRectangle width="60" height="30" as="alternateBounds" />
          </mxGeometry>
        </mxCell>
        <mxCell id="T5jJRAGALwiK5fhTE4Fy-16" value="fullname" style="shape=partialRectangle;connectable=0;fillColor=none;top=0;left=0;bottom=0;right=0;align=left;spacingLeft=6;overflow=hidden;html=1;whiteSpace=wrap;" parent="T5jJRAGALwiK5fhTE4Fy-14" vertex="1">
          <mxGeometry x="60" width="100" height="30" as="geometry">
            <mxRectangle width="100" height="30" as="alternateBounds" />
          </mxGeometry>
        </mxCell>
        <mxCell id="T5jJRAGALwiK5fhTE4Fy-17" value="VARCHAR" style="shape=partialRectangle;connectable=0;fillColor=none;top=0;left=0;bottom=0;right=0;align=left;spacingLeft=6;overflow=hidden;html=1;whiteSpace=wrap;" parent="T5jJRAGALwiK5fhTE4Fy-14" vertex="1">
          <mxGeometry x="160" width="90" height="30" as="geometry">
            <mxRectangle width="90" height="30" as="alternateBounds" />
          </mxGeometry>
        </mxCell>
        <mxCell id="T5jJRAGALwiK5fhTE4Fy-18" style="shape=partialRectangle;connectable=0;fillColor=none;top=0;left=0;bottom=0;right=0;align=left;spacingLeft=6;overflow=hidden;html=1;whiteSpace=wrap;" parent="T5jJRAGALwiK5fhTE4Fy-14" vertex="1">
          <mxGeometry x="250" width="100" height="30" as="geometry">
            <mxRectangle width="100" height="30" as="alternateBounds" />
          </mxGeometry>
        </mxCell>
        <mxCell id="T5jJRAGALwiK5fhTE4Fy-9" style="shape=tableRow;horizontal=0;startSize=0;swimlaneHead=0;swimlaneBody=0;fillColor=none;collapsible=0;dropTarget=0;points=[[0,0.5],[1,0.5]];portConstraint=eastwest;top=0;left=0;right=0;bottom=0;html=1;" parent="EjmX-pRvO7xtQYIAAKBp-1" vertex="1">
          <mxGeometry y="180" width="350" height="30" as="geometry" />
        </mxCell>
        <mxCell id="T5jJRAGALwiK5fhTE4Fy-10" style="shape=partialRectangle;connectable=0;fillColor=none;top=0;left=0;bottom=0;right=0;editable=1;overflow=hidden;html=1;whiteSpace=wrap;" parent="T5jJRAGALwiK5fhTE4Fy-9" vertex="1">
          <mxGeometry width="60" height="30" as="geometry">
            <mxRectangle width="60" height="30" as="alternateBounds" />
          </mxGeometry>
        </mxCell>
        <mxCell id="T5jJRAGALwiK5fhTE4Fy-11" value="password" style="shape=partialRectangle;connectable=0;fillColor=none;top=0;left=0;bottom=0;right=0;align=left;spacingLeft=6;overflow=hidden;html=1;whiteSpace=wrap;" parent="T5jJRAGALwiK5fhTE4Fy-9" vertex="1">
          <mxGeometry x="60" width="100" height="30" as="geometry">
            <mxRectangle width="100" height="30" as="alternateBounds" />
          </mxGeometry>
        </mxCell>
        <mxCell id="T5jJRAGALwiK5fhTE4Fy-12" value="VARCHAR" style="shape=partialRectangle;connectable=0;fillColor=none;top=0;left=0;bottom=0;right=0;align=left;spacingLeft=6;overflow=hidden;html=1;whiteSpace=wrap;" parent="T5jJRAGALwiK5fhTE4Fy-9" vertex="1">
          <mxGeometry x="160" width="90" height="30" as="geometry">
            <mxRectangle width="90" height="30" as="alternateBounds" />
          </mxGeometry>
        </mxCell>
        <mxCell id="T5jJRAGALwiK5fhTE4Fy-13" value="(hash-elve)" style="shape=partialRectangle;connectable=0;fillColor=none;top=0;left=0;bottom=0;right=0;align=left;spacingLeft=6;overflow=hidden;html=1;whiteSpace=wrap;" parent="T5jJRAGALwiK5fhTE4Fy-9" vertex="1">
          <mxGeometry x="250" width="100" height="30" as="geometry">
            <mxRectangle width="100" height="30" as="alternateBounds" />
          </mxGeometry>
        </mxCell>
        <mxCell id="T5jJRAGALwiK5fhTE4Fy-19" style="shape=tableRow;horizontal=0;startSize=0;swimlaneHead=0;swimlaneBody=0;fillColor=none;collapsible=0;dropTarget=0;points=[[0,0.5],[1,0.5]];portConstraint=eastwest;top=0;left=0;right=0;bottom=0;html=1;" parent="EjmX-pRvO7xtQYIAAKBp-1" vertex="1">
          <mxGeometry y="210" width="350" height="70" as="geometry" />
        </mxCell>
        <mxCell id="T5jJRAGALwiK5fhTE4Fy-20" style="shape=partialRectangle;connectable=0;fillColor=none;top=0;left=0;bottom=0;right=0;editable=1;overflow=hidden;html=1;whiteSpace=wrap;" parent="T5jJRAGALwiK5fhTE4Fy-19" vertex="1">
          <mxGeometry width="60" height="70" as="geometry">
            <mxRectangle width="60" height="70" as="alternateBounds" />
          </mxGeometry>
        </mxCell>
        <mxCell id="T5jJRAGALwiK5fhTE4Fy-21" value="role" style="shape=partialRectangle;connectable=0;fillColor=none;top=0;left=0;bottom=0;right=0;align=left;spacingLeft=6;overflow=hidden;html=1;whiteSpace=wrap;" parent="T5jJRAGALwiK5fhTE4Fy-19" vertex="1">
          <mxGeometry x="60" width="100" height="70" as="geometry">
            <mxRectangle width="100" height="70" as="alternateBounds" />
          </mxGeometry>
        </mxCell>
        <mxCell id="T5jJRAGALwiK5fhTE4Fy-22" value="ENUM&lt;br&gt;&lt;font style=&quot;font-size: 8px;&quot;&gt;(NORMAL,&lt;br&gt;MODERATOR,&lt;br&gt;ADMIN)&lt;/font&gt;" style="shape=partialRectangle;connectable=0;fillColor=none;top=0;left=0;bottom=0;right=0;align=left;spacingLeft=6;overflow=hidden;html=1;whiteSpace=wrap;" parent="T5jJRAGALwiK5fhTE4Fy-19" vertex="1">
          <mxGeometry x="160" width="90" height="70" as="geometry">
            <mxRectangle width="90" height="70" as="alternateBounds" />
          </mxGeometry>
        </mxCell>
        <mxCell id="T5jJRAGALwiK5fhTE4Fy-23" value="= NORMAL&lt;div&gt;(A felhasználó rangja)&lt;/div&gt;" style="shape=partialRectangle;connectable=0;fillColor=none;top=0;left=0;bottom=0;right=0;align=left;spacingLeft=6;overflow=hidden;html=1;whiteSpace=wrap;" parent="T5jJRAGALwiK5fhTE4Fy-19" vertex="1">
          <mxGeometry x="250" width="100" height="70" as="geometry">
            <mxRectangle width="100" height="70" as="alternateBounds" />
          </mxGeometry>
        </mxCell>
        <mxCell id="T5jJRAGALwiK5fhTE4Fy-24" style="edgeStyle=orthogonalEdgeStyle;rounded=0;orthogonalLoop=1;jettySize=auto;html=1;exitX=0;exitY=0.5;exitDx=0;exitDy=0;entryX=0;entryY=0.5;entryDx=0;entryDy=0;startArrow=ERzeroToOne;startFill=0;endArrow=ERmany;endFill=0;" parent="EjmX-pRvO7xtQYIAAKBp-1" source="EjmX-pRvO7xtQYIAAKBp-5" target="EjmX-pRvO7xtQYIAAKBp-2" edge="1">
          <mxGeometry relative="1" as="geometry">
            <mxPoint x="-10" y="40" as="targetPoint" />
            <Array as="points">
              <mxPoint x="-40" y="75" />
              <mxPoint x="-40" y="45" />
            </Array>
          </mxGeometry>
        </mxCell>
        <mxCell id="T5jJRAGALwiK5fhTE4Fy-25" value="Customer" style="shape=table;startSize=30;container=1;collapsible=1;childLayout=tableLayout;fixedRows=1;rowLines=0;fontStyle=1;align=center;resizeLast=1;html=1;whiteSpace=wrap;" parent="1" vertex="1">
          <mxGeometry x="545" y="150" width="350" height="180" as="geometry" />
        </mxCell>
        <mxCell id="T5jJRAGALwiK5fhTE4Fy-26" value="" style="shape=tableRow;horizontal=0;startSize=0;swimlaneHead=0;swimlaneBody=0;fillColor=none;collapsible=0;dropTarget=0;points=[[0,0.5],[1,0.5]];portConstraint=eastwest;top=0;left=0;right=0;bottom=0;html=1;" parent="T5jJRAGALwiK5fhTE4Fy-25" vertex="1">
          <mxGeometry y="30" width="350" height="30" as="geometry" />
        </mxCell>
        <mxCell id="T5jJRAGALwiK5fhTE4Fy-27" value="PK" style="shape=partialRectangle;connectable=0;fillColor=none;top=0;left=0;bottom=0;right=0;fontStyle=1;overflow=hidden;html=1;whiteSpace=wrap;" parent="T5jJRAGALwiK5fhTE4Fy-26" vertex="1">
          <mxGeometry width="60" height="30" as="geometry">
            <mxRectangle width="60" height="30" as="alternateBounds" />
          </mxGeometry>
        </mxCell>
        <mxCell id="T5jJRAGALwiK5fhTE4Fy-28" value="id" style="shape=partialRectangle;connectable=0;fillColor=none;top=0;left=0;bottom=0;right=0;align=left;spacingLeft=6;fontStyle=5;overflow=hidden;html=1;whiteSpace=wrap;" parent="T5jJRAGALwiK5fhTE4Fy-26" vertex="1">
          <mxGeometry x="60" width="89.99999999999977" height="30" as="geometry">
            <mxRectangle width="89.99999999999977" height="30" as="alternateBounds" />
          </mxGeometry>
        </mxCell>
        <mxCell id="T5jJRAGALwiK5fhTE4Fy-29" value="INT" style="shape=partialRectangle;connectable=0;fillColor=none;top=0;left=0;bottom=0;right=0;align=left;spacingLeft=6;fontStyle=5;overflow=hidden;html=1;whiteSpace=wrap;" parent="T5jJRAGALwiK5fhTE4Fy-26" vertex="1">
          <mxGeometry x="149.99999999999977" width="100" height="30" as="geometry">
            <mxRectangle width="100" height="30" as="alternateBounds" />
          </mxGeometry>
        </mxCell>
        <mxCell id="T5jJRAGALwiK5fhTE4Fy-30" value="autoincrement" style="shape=partialRectangle;connectable=0;fillColor=none;top=0;left=0;bottom=0;right=0;align=left;spacingLeft=6;fontStyle=5;overflow=hidden;html=1;whiteSpace=wrap;" parent="T5jJRAGALwiK5fhTE4Fy-26" vertex="1">
          <mxGeometry x="249.99999999999977" width="100.00000000000023" height="30" as="geometry">
            <mxRectangle width="100.00000000000023" height="30" as="alternateBounds" />
          </mxGeometry>
        </mxCell>
        <mxCell id="T5jJRAGALwiK5fhTE4Fy-31" value="" style="shape=tableRow;horizontal=0;startSize=0;swimlaneHead=0;swimlaneBody=0;fillColor=none;collapsible=0;dropTarget=0;points=[[0,0.5],[1,0.5]];portConstraint=eastwest;top=0;left=0;right=0;bottom=1;html=1;" parent="T5jJRAGALwiK5fhTE4Fy-25" vertex="1">
          <mxGeometry y="60" width="350" height="30" as="geometry" />
        </mxCell>
        <mxCell id="T5jJRAGALwiK5fhTE4Fy-32" value="FK" style="shape=partialRectangle;connectable=0;fillColor=none;top=0;left=0;bottom=0;right=0;fontStyle=1;overflow=hidden;html=1;whiteSpace=wrap;" parent="T5jJRAGALwiK5fhTE4Fy-31" vertex="1">
          <mxGeometry width="60" height="30" as="geometry">
            <mxRectangle width="60" height="30" as="alternateBounds" />
          </mxGeometry>
        </mxCell>
        <mxCell id="T5jJRAGALwiK5fhTE4Fy-33" value="user_id" style="shape=partialRectangle;connectable=0;fillColor=none;top=0;left=0;bottom=0;right=0;align=left;spacingLeft=6;fontStyle=5;overflow=hidden;html=1;whiteSpace=wrap;" parent="T5jJRAGALwiK5fhTE4Fy-31" vertex="1">
          <mxGeometry x="60" width="89.99999999999977" height="30" as="geometry">
            <mxRectangle width="89.99999999999977" height="30" as="alternateBounds" />
          </mxGeometry>
        </mxCell>
        <mxCell id="T5jJRAGALwiK5fhTE4Fy-34" value="INT" style="shape=partialRectangle;connectable=0;fillColor=none;top=0;left=0;bottom=0;right=0;align=left;spacingLeft=6;fontStyle=5;overflow=hidden;html=1;whiteSpace=wrap;" parent="T5jJRAGALwiK5fhTE4Fy-31" vertex="1">
          <mxGeometry x="149.99999999999977" width="100" height="30" as="geometry">
            <mxRectangle width="100" height="30" as="alternateBounds" />
          </mxGeometry>
        </mxCell>
        <mxCell id="T5jJRAGALwiK5fhTE4Fy-35" value="(aki elfogadta)" style="shape=partialRectangle;connectable=0;fillColor=none;top=0;left=0;bottom=0;right=0;align=left;spacingLeft=6;fontStyle=5;overflow=hidden;html=1;whiteSpace=wrap;" parent="T5jJRAGALwiK5fhTE4Fy-31" vertex="1">
          <mxGeometry x="249.99999999999977" width="100.00000000000023" height="30" as="geometry">
            <mxRectangle width="100.00000000000023" height="30" as="alternateBounds" />
          </mxGeometry>
        </mxCell>
        <mxCell id="T5jJRAGALwiK5fhTE4Fy-36" value="" style="shape=tableRow;horizontal=0;startSize=0;swimlaneHead=0;swimlaneBody=0;fillColor=none;collapsible=0;dropTarget=0;points=[[0,0.5],[1,0.5]];portConstraint=eastwest;top=0;left=0;right=0;bottom=0;html=1;" parent="T5jJRAGALwiK5fhTE4Fy-25" vertex="1">
          <mxGeometry y="90" width="350" height="30" as="geometry" />
        </mxCell>
        <mxCell id="T5jJRAGALwiK5fhTE4Fy-37" value="UK" style="shape=partialRectangle;connectable=0;fillColor=none;top=0;left=0;bottom=0;right=0;editable=1;overflow=hidden;html=1;whiteSpace=wrap;" parent="T5jJRAGALwiK5fhTE4Fy-36" vertex="1">
          <mxGeometry width="60" height="30" as="geometry">
            <mxRectangle width="60" height="30" as="alternateBounds" />
          </mxGeometry>
        </mxCell>
        <mxCell id="T5jJRAGALwiK5fhTE4Fy-38" value="email" style="shape=partialRectangle;connectable=0;fillColor=none;top=0;left=0;bottom=0;right=0;align=left;spacingLeft=6;overflow=hidden;html=1;whiteSpace=wrap;" parent="T5jJRAGALwiK5fhTE4Fy-36" vertex="1">
          <mxGeometry x="60" width="89.99999999999977" height="30" as="geometry">
            <mxRectangle width="89.99999999999977" height="30" as="alternateBounds" />
          </mxGeometry>
        </mxCell>
        <mxCell id="T5jJRAGALwiK5fhTE4Fy-39" value="VARCHAR" style="shape=partialRectangle;connectable=0;fillColor=none;top=0;left=0;bottom=0;right=0;align=left;spacingLeft=6;overflow=hidden;html=1;whiteSpace=wrap;" parent="T5jJRAGALwiK5fhTE4Fy-36" vertex="1">
          <mxGeometry x="149.99999999999977" width="100" height="30" as="geometry">
            <mxRectangle width="100" height="30" as="alternateBounds" />
          </mxGeometry>
        </mxCell>
        <mxCell id="T5jJRAGALwiK5fhTE4Fy-40" style="shape=partialRectangle;connectable=0;fillColor=none;top=0;left=0;bottom=0;right=0;align=left;spacingLeft=6;overflow=hidden;html=1;whiteSpace=wrap;" parent="T5jJRAGALwiK5fhTE4Fy-36" vertex="1">
          <mxGeometry x="249.99999999999977" width="100.00000000000023" height="30" as="geometry">
            <mxRectangle width="100.00000000000023" height="30" as="alternateBounds" />
          </mxGeometry>
        </mxCell>
        <mxCell id="T5jJRAGALwiK5fhTE4Fy-46" style="shape=tableRow;horizontal=0;startSize=0;swimlaneHead=0;swimlaneBody=0;fillColor=none;collapsible=0;dropTarget=0;points=[[0,0.5],[1,0.5]];portConstraint=eastwest;top=0;left=0;right=0;bottom=0;html=1;" parent="T5jJRAGALwiK5fhTE4Fy-25" vertex="1">
          <mxGeometry y="120" width="350" height="30" as="geometry" />
        </mxCell>
        <mxCell id="T5jJRAGALwiK5fhTE4Fy-47" style="shape=partialRectangle;connectable=0;fillColor=none;top=0;left=0;bottom=0;right=0;editable=1;overflow=hidden;html=1;whiteSpace=wrap;" parent="T5jJRAGALwiK5fhTE4Fy-46" vertex="1">
          <mxGeometry width="60" height="30" as="geometry">
            <mxRectangle width="60" height="30" as="alternateBounds" />
          </mxGeometry>
        </mxCell>
        <mxCell id="T5jJRAGALwiK5fhTE4Fy-48" value="fullname" style="shape=partialRectangle;connectable=0;fillColor=none;top=0;left=0;bottom=0;right=0;align=left;spacingLeft=6;overflow=hidden;html=1;whiteSpace=wrap;" parent="T5jJRAGALwiK5fhTE4Fy-46" vertex="1">
          <mxGeometry x="60" width="89.99999999999977" height="30" as="geometry">
            <mxRectangle width="89.99999999999977" height="30" as="alternateBounds" />
          </mxGeometry>
        </mxCell>
        <mxCell id="T5jJRAGALwiK5fhTE4Fy-49" value="VARCHAR" style="shape=partialRectangle;connectable=0;fillColor=none;top=0;left=0;bottom=0;right=0;align=left;spacingLeft=6;overflow=hidden;html=1;whiteSpace=wrap;" parent="T5jJRAGALwiK5fhTE4Fy-46" vertex="1">
          <mxGeometry x="149.99999999999977" width="100" height="30" as="geometry">
            <mxRectangle width="100" height="30" as="alternateBounds" />
          </mxGeometry>
        </mxCell>
        <mxCell id="T5jJRAGALwiK5fhTE4Fy-50" style="shape=partialRectangle;connectable=0;fillColor=none;top=0;left=0;bottom=0;right=0;align=left;spacingLeft=6;overflow=hidden;html=1;whiteSpace=wrap;" parent="T5jJRAGALwiK5fhTE4Fy-46" vertex="1">
          <mxGeometry x="249.99999999999977" width="100.00000000000023" height="30" as="geometry">
            <mxRectangle width="100.00000000000023" height="30" as="alternateBounds" />
          </mxGeometry>
        </mxCell>
        <mxCell id="T5jJRAGALwiK5fhTE4Fy-51" style="shape=tableRow;horizontal=0;startSize=0;swimlaneHead=0;swimlaneBody=0;fillColor=none;collapsible=0;dropTarget=0;points=[[0,0.5],[1,0.5]];portConstraint=eastwest;top=0;left=0;right=0;bottom=0;html=1;" parent="T5jJRAGALwiK5fhTE4Fy-25" vertex="1">
          <mxGeometry y="150" width="350" height="30" as="geometry" />
        </mxCell>
        <mxCell id="T5jJRAGALwiK5fhTE4Fy-52" style="shape=partialRectangle;connectable=0;fillColor=none;top=0;left=0;bottom=0;right=0;editable=1;overflow=hidden;html=1;whiteSpace=wrap;" parent="T5jJRAGALwiK5fhTE4Fy-51" vertex="1">
          <mxGeometry width="60" height="30" as="geometry">
            <mxRectangle width="60" height="30" as="alternateBounds" />
          </mxGeometry>
        </mxCell>
        <mxCell id="T5jJRAGALwiK5fhTE4Fy-53" value="is_banned" style="shape=partialRectangle;connectable=0;fillColor=none;top=0;left=0;bottom=0;right=0;align=left;spacingLeft=6;overflow=hidden;html=1;whiteSpace=wrap;" parent="T5jJRAGALwiK5fhTE4Fy-51" vertex="1">
          <mxGeometry x="60" width="89.99999999999977" height="30" as="geometry">
            <mxRectangle width="89.99999999999977" height="30" as="alternateBounds" />
          </mxGeometry>
        </mxCell>
        <mxCell id="T5jJRAGALwiK5fhTE4Fy-54" value="BOOLEAN" style="shape=partialRectangle;connectable=0;fillColor=none;top=0;left=0;bottom=0;right=0;align=left;spacingLeft=6;overflow=hidden;html=1;whiteSpace=wrap;" parent="T5jJRAGALwiK5fhTE4Fy-51" vertex="1">
          <mxGeometry x="149.99999999999977" width="100" height="30" as="geometry">
            <mxRectangle width="100" height="30" as="alternateBounds" />
          </mxGeometry>
        </mxCell>
        <mxCell id="T5jJRAGALwiK5fhTE4Fy-55" value="= FALSE" style="shape=partialRectangle;connectable=0;fillColor=none;top=0;left=0;bottom=0;right=0;align=left;spacingLeft=6;overflow=hidden;html=1;whiteSpace=wrap;" parent="T5jJRAGALwiK5fhTE4Fy-51" vertex="1">
          <mxGeometry x="249.99999999999977" width="100.00000000000023" height="30" as="geometry">
            <mxRectangle width="100.00000000000023" height="30" as="alternateBounds" />
          </mxGeometry>
        </mxCell>
        <mxCell id="T5jJRAGALwiK5fhTE4Fy-62" style="edgeStyle=orthogonalEdgeStyle;rounded=0;orthogonalLoop=1;jettySize=auto;html=1;exitX=0;exitY=0.5;exitDx=0;exitDy=0;entryX=1;entryY=0.5;entryDx=0;entryDy=0;endArrow=ERzeroToOne;endFill=0;startArrow=ERmany;startFill=0;" parent="1" source="T5jJRAGALwiK5fhTE4Fy-31" target="EjmX-pRvO7xtQYIAAKBp-2" edge="1">
          <mxGeometry relative="1" as="geometry" />
        </mxCell>
        <mxCell id="T5jJRAGALwiK5fhTE4Fy-63" value="Reservation" style="shape=table;startSize=30;container=1;collapsible=1;childLayout=tableLayout;fixedRows=1;rowLines=0;fontStyle=1;align=center;resizeLast=1;html=1;whiteSpace=wrap;" parent="1" vertex="1">
          <mxGeometry x="550" y="390" width="340" height="280" as="geometry" />
        </mxCell>
        <mxCell id="T5jJRAGALwiK5fhTE4Fy-64" value="" style="shape=tableRow;horizontal=0;startSize=0;swimlaneHead=0;swimlaneBody=0;fillColor=none;collapsible=0;dropTarget=0;points=[[0,0.5],[1,0.5]];portConstraint=eastwest;top=0;left=0;right=0;bottom=0;html=1;" parent="T5jJRAGALwiK5fhTE4Fy-63" vertex="1">
          <mxGeometry y="30" width="340" height="30" as="geometry" />
        </mxCell>
        <mxCell id="T5jJRAGALwiK5fhTE4Fy-65" value="PK" style="shape=partialRectangle;connectable=0;fillColor=none;top=0;left=0;bottom=0;right=0;fontStyle=1;overflow=hidden;html=1;whiteSpace=wrap;" parent="T5jJRAGALwiK5fhTE4Fy-64" vertex="1">
          <mxGeometry width="60" height="30" as="geometry">
            <mxRectangle width="60" height="30" as="alternateBounds" />
          </mxGeometry>
        </mxCell>
        <mxCell id="T5jJRAGALwiK5fhTE4Fy-66" value="id" style="shape=partialRectangle;connectable=0;fillColor=none;top=0;left=0;bottom=0;right=0;align=left;spacingLeft=6;fontStyle=5;overflow=hidden;html=1;whiteSpace=wrap;" parent="T5jJRAGALwiK5fhTE4Fy-64" vertex="1">
          <mxGeometry x="60" width="100" height="30" as="geometry">
            <mxRectangle width="100" height="30" as="alternateBounds" />
          </mxGeometry>
        </mxCell>
        <mxCell id="T5jJRAGALwiK5fhTE4Fy-67" value="INT" style="shape=partialRectangle;connectable=0;fillColor=none;top=0;left=0;bottom=0;right=0;align=left;spacingLeft=6;fontStyle=5;overflow=hidden;html=1;whiteSpace=wrap;" parent="T5jJRAGALwiK5fhTE4Fy-64" vertex="1">
          <mxGeometry x="160" width="80" height="30" as="geometry">
            <mxRectangle width="80" height="30" as="alternateBounds" />
          </mxGeometry>
        </mxCell>
        <mxCell id="T5jJRAGALwiK5fhTE4Fy-68" value="autoincrement" style="shape=partialRectangle;connectable=0;fillColor=none;top=0;left=0;bottom=0;right=0;align=left;spacingLeft=6;fontStyle=5;overflow=hidden;html=1;whiteSpace=wrap;" parent="T5jJRAGALwiK5fhTE4Fy-64" vertex="1">
          <mxGeometry x="240" width="100" height="30" as="geometry">
            <mxRectangle width="100" height="30" as="alternateBounds" />
          </mxGeometry>
        </mxCell>
        <mxCell id="T5jJRAGALwiK5fhTE4Fy-69" value="" style="shape=tableRow;horizontal=0;startSize=0;swimlaneHead=0;swimlaneBody=0;fillColor=none;collapsible=0;dropTarget=0;points=[[0,0.5],[1,0.5]];portConstraint=eastwest;top=0;left=0;right=0;bottom=0;html=1;" parent="T5jJRAGALwiK5fhTE4Fy-63" vertex="1">
          <mxGeometry y="60" width="340" height="30" as="geometry" />
        </mxCell>
        <mxCell id="T5jJRAGALwiK5fhTE4Fy-70" value="FK" style="shape=partialRectangle;connectable=0;fillColor=none;top=0;left=0;bottom=0;right=0;fontStyle=1;overflow=hidden;html=1;whiteSpace=wrap;" parent="T5jJRAGALwiK5fhTE4Fy-69" vertex="1">
          <mxGeometry width="60" height="30" as="geometry">
            <mxRectangle width="60" height="30" as="alternateBounds" />
          </mxGeometry>
        </mxCell>
        <mxCell id="T5jJRAGALwiK5fhTE4Fy-71" value="customer_id" style="shape=partialRectangle;connectable=0;fillColor=none;top=0;left=0;bottom=0;right=0;align=left;spacingLeft=6;fontStyle=5;overflow=hidden;html=1;whiteSpace=wrap;" parent="T5jJRAGALwiK5fhTE4Fy-69" vertex="1">
          <mxGeometry x="60" width="100" height="30" as="geometry">
            <mxRectangle width="100" height="30" as="alternateBounds" />
          </mxGeometry>
        </mxCell>
        <mxCell id="T5jJRAGALwiK5fhTE4Fy-72" value="INT" style="shape=partialRectangle;connectable=0;fillColor=none;top=0;left=0;bottom=0;right=0;align=left;spacingLeft=6;fontStyle=5;overflow=hidden;html=1;whiteSpace=wrap;" parent="T5jJRAGALwiK5fhTE4Fy-69" vertex="1">
          <mxGeometry x="160" width="80" height="30" as="geometry">
            <mxRectangle width="80" height="30" as="alternateBounds" />
          </mxGeometry>
        </mxCell>
        <mxCell id="T5jJRAGALwiK5fhTE4Fy-73" style="shape=partialRectangle;connectable=0;fillColor=none;top=0;left=0;bottom=0;right=0;align=left;spacingLeft=6;fontStyle=5;overflow=hidden;html=1;whiteSpace=wrap;" parent="T5jJRAGALwiK5fhTE4Fy-69" vertex="1">
          <mxGeometry x="240" width="100" height="30" as="geometry">
            <mxRectangle width="100" height="30" as="alternateBounds" />
          </mxGeometry>
        </mxCell>
        <mxCell id="T5jJRAGALwiK5fhTE4Fy-123" style="shape=tableRow;horizontal=0;startSize=0;swimlaneHead=0;swimlaneBody=0;fillColor=none;collapsible=0;dropTarget=0;points=[[0,0.5],[1,0.5]];portConstraint=eastwest;top=0;left=0;right=0;bottom=1;html=1;" parent="T5jJRAGALwiK5fhTE4Fy-63" vertex="1">
          <mxGeometry y="90" width="340" height="30" as="geometry" />
        </mxCell>
        <mxCell id="T5jJRAGALwiK5fhTE4Fy-124" value="FK" style="shape=partialRectangle;connectable=0;fillColor=none;top=0;left=0;bottom=0;right=0;fontStyle=1;overflow=hidden;html=1;whiteSpace=wrap;" parent="T5jJRAGALwiK5fhTE4Fy-123" vertex="1">
          <mxGeometry width="60" height="30" as="geometry">
            <mxRectangle width="60" height="30" as="alternateBounds" />
          </mxGeometry>
        </mxCell>
        <mxCell id="T5jJRAGALwiK5fhTE4Fy-125" value="room_id" style="shape=partialRectangle;connectable=0;fillColor=none;top=0;left=0;bottom=0;right=0;align=left;spacingLeft=6;fontStyle=5;overflow=hidden;html=1;whiteSpace=wrap;strokeColor=default;" parent="T5jJRAGALwiK5fhTE4Fy-123" vertex="1">
          <mxGeometry x="60" width="100" height="30" as="geometry">
            <mxRectangle width="100" height="30" as="alternateBounds" />
          </mxGeometry>
        </mxCell>
        <mxCell id="T5jJRAGALwiK5fhTE4Fy-126" value="INT" style="shape=partialRectangle;connectable=0;fillColor=none;top=0;left=0;bottom=0;right=0;align=left;spacingLeft=6;fontStyle=5;overflow=hidden;html=1;whiteSpace=wrap;" parent="T5jJRAGALwiK5fhTE4Fy-123" vertex="1">
          <mxGeometry x="160" width="80" height="30" as="geometry">
            <mxRectangle width="80" height="30" as="alternateBounds" />
          </mxGeometry>
        </mxCell>
        <mxCell id="T5jJRAGALwiK5fhTE4Fy-127" style="shape=partialRectangle;connectable=0;fillColor=none;top=0;left=0;bottom=0;right=0;align=left;spacingLeft=6;fontStyle=5;overflow=hidden;html=1;whiteSpace=wrap;" parent="T5jJRAGALwiK5fhTE4Fy-123" vertex="1">
          <mxGeometry x="240" width="100" height="30" as="geometry">
            <mxRectangle width="100" height="30" as="alternateBounds" />
          </mxGeometry>
        </mxCell>
        <mxCell id="T5jJRAGALwiK5fhTE4Fy-74" value="" style="shape=tableRow;horizontal=0;startSize=0;swimlaneHead=0;swimlaneBody=0;fillColor=none;collapsible=0;dropTarget=0;points=[[0,0.5],[1,0.5]];portConstraint=eastwest;top=0;left=0;right=0;bottom=0;html=1;" parent="T5jJRAGALwiK5fhTE4Fy-63" vertex="1">
          <mxGeometry y="120" width="340" height="30" as="geometry" />
        </mxCell>
        <mxCell id="T5jJRAGALwiK5fhTE4Fy-75" value="" style="shape=partialRectangle;connectable=0;fillColor=none;top=0;left=0;bottom=0;right=0;editable=1;overflow=hidden;html=1;whiteSpace=wrap;" parent="T5jJRAGALwiK5fhTE4Fy-74" vertex="1">
          <mxGeometry width="60" height="30" as="geometry">
            <mxRectangle width="60" height="30" as="alternateBounds" />
          </mxGeometry>
        </mxCell>
        <mxCell id="T5jJRAGALwiK5fhTE4Fy-76" value="requested_at" style="shape=partialRectangle;connectable=0;fillColor=none;top=0;left=0;bottom=0;right=0;align=left;spacingLeft=6;overflow=hidden;html=1;whiteSpace=wrap;" parent="T5jJRAGALwiK5fhTE4Fy-74" vertex="1">
          <mxGeometry x="60" width="100" height="30" as="geometry">
            <mxRectangle width="100" height="30" as="alternateBounds" />
          </mxGeometry>
        </mxCell>
        <mxCell id="T5jJRAGALwiK5fhTE4Fy-77" value="DATE" style="shape=partialRectangle;connectable=0;fillColor=none;top=0;left=0;bottom=0;right=0;align=left;spacingLeft=6;overflow=hidden;html=1;whiteSpace=wrap;" parent="T5jJRAGALwiK5fhTE4Fy-74" vertex="1">
          <mxGeometry x="160" width="80" height="30" as="geometry">
            <mxRectangle width="80" height="30" as="alternateBounds" />
          </mxGeometry>
        </mxCell>
        <mxCell id="T5jJRAGALwiK5fhTE4Fy-78" style="shape=partialRectangle;connectable=0;fillColor=none;top=0;left=0;bottom=0;right=0;align=left;spacingLeft=6;overflow=hidden;html=1;whiteSpace=wrap;" parent="T5jJRAGALwiK5fhTE4Fy-74" vertex="1">
          <mxGeometry x="240" width="100" height="30" as="geometry">
            <mxRectangle width="100" height="30" as="alternateBounds" />
          </mxGeometry>
        </mxCell>
        <mxCell id="T5jJRAGALwiK5fhTE4Fy-79" style="shape=tableRow;horizontal=0;startSize=0;swimlaneHead=0;swimlaneBody=0;fillColor=none;collapsible=0;dropTarget=0;points=[[0,0.5],[1,0.5]];portConstraint=eastwest;top=0;left=0;right=0;bottom=0;html=1;" parent="T5jJRAGALwiK5fhTE4Fy-63" vertex="1">
          <mxGeometry y="150" width="340" height="30" as="geometry" />
        </mxCell>
        <mxCell id="T5jJRAGALwiK5fhTE4Fy-80" style="shape=partialRectangle;connectable=0;fillColor=none;top=0;left=0;bottom=0;right=0;editable=1;overflow=hidden;html=1;whiteSpace=wrap;" parent="T5jJRAGALwiK5fhTE4Fy-79" vertex="1">
          <mxGeometry width="60" height="30" as="geometry">
            <mxRectangle width="60" height="30" as="alternateBounds" />
          </mxGeometry>
        </mxCell>
        <mxCell id="T5jJRAGALwiK5fhTE4Fy-81" value="start_date" style="shape=partialRectangle;connectable=0;fillColor=none;top=0;left=0;bottom=0;right=0;align=left;spacingLeft=6;overflow=hidden;html=1;whiteSpace=wrap;" parent="T5jJRAGALwiK5fhTE4Fy-79" vertex="1">
          <mxGeometry x="60" width="100" height="30" as="geometry">
            <mxRectangle width="100" height="30" as="alternateBounds" />
          </mxGeometry>
        </mxCell>
        <mxCell id="T5jJRAGALwiK5fhTE4Fy-82" value="DATE" style="shape=partialRectangle;connectable=0;fillColor=none;top=0;left=0;bottom=0;right=0;align=left;spacingLeft=6;overflow=hidden;html=1;whiteSpace=wrap;" parent="T5jJRAGALwiK5fhTE4Fy-79" vertex="1">
          <mxGeometry x="160" width="80" height="30" as="geometry">
            <mxRectangle width="80" height="30" as="alternateBounds" />
          </mxGeometry>
        </mxCell>
        <mxCell id="T5jJRAGALwiK5fhTE4Fy-83" style="shape=partialRectangle;connectable=0;fillColor=none;top=0;left=0;bottom=0;right=0;align=left;spacingLeft=6;overflow=hidden;html=1;whiteSpace=wrap;" parent="T5jJRAGALwiK5fhTE4Fy-79" vertex="1">
          <mxGeometry x="240" width="100" height="30" as="geometry">
            <mxRectangle width="100" height="30" as="alternateBounds" />
          </mxGeometry>
        </mxCell>
        <mxCell id="T5jJRAGALwiK5fhTE4Fy-84" style="shape=tableRow;horizontal=0;startSize=0;swimlaneHead=0;swimlaneBody=0;fillColor=none;collapsible=0;dropTarget=0;points=[[0,0.5],[1,0.5]];portConstraint=eastwest;top=0;left=0;right=0;bottom=0;html=1;" parent="T5jJRAGALwiK5fhTE4Fy-63" vertex="1">
          <mxGeometry y="180" width="340" height="30" as="geometry" />
        </mxCell>
        <mxCell id="T5jJRAGALwiK5fhTE4Fy-85" style="shape=partialRectangle;connectable=0;fillColor=none;top=0;left=0;bottom=0;right=0;editable=1;overflow=hidden;html=1;whiteSpace=wrap;" parent="T5jJRAGALwiK5fhTE4Fy-84" vertex="1">
          <mxGeometry width="60" height="30" as="geometry">
            <mxRectangle width="60" height="30" as="alternateBounds" />
          </mxGeometry>
        </mxCell>
        <mxCell id="T5jJRAGALwiK5fhTE4Fy-86" value="end_date" style="shape=partialRectangle;connectable=0;fillColor=none;top=0;left=0;bottom=0;right=0;align=left;spacingLeft=6;overflow=hidden;html=1;whiteSpace=wrap;" parent="T5jJRAGALwiK5fhTE4Fy-84" vertex="1">
          <mxGeometry x="60" width="100" height="30" as="geometry">
            <mxRectangle width="100" height="30" as="alternateBounds" />
          </mxGeometry>
        </mxCell>
        <mxCell id="T5jJRAGALwiK5fhTE4Fy-87" value="DATE" style="shape=partialRectangle;connectable=0;fillColor=none;top=0;left=0;bottom=0;right=0;align=left;spacingLeft=6;overflow=hidden;html=1;whiteSpace=wrap;" parent="T5jJRAGALwiK5fhTE4Fy-84" vertex="1">
          <mxGeometry x="160" width="80" height="30" as="geometry">
            <mxRectangle width="80" height="30" as="alternateBounds" />
          </mxGeometry>
        </mxCell>
        <mxCell id="T5jJRAGALwiK5fhTE4Fy-88" value="" style="shape=partialRectangle;connectable=0;fillColor=none;top=0;left=0;bottom=0;right=0;align=left;spacingLeft=6;overflow=hidden;html=1;whiteSpace=wrap;" parent="T5jJRAGALwiK5fhTE4Fy-84" vertex="1">
          <mxGeometry x="240" width="100" height="30" as="geometry">
            <mxRectangle width="100" height="30" as="alternateBounds" />
          </mxGeometry>
        </mxCell>
        <mxCell id="T5jJRAGALwiK5fhTE4Fy-89" style="shape=tableRow;horizontal=0;startSize=0;swimlaneHead=0;swimlaneBody=0;fillColor=none;collapsible=0;dropTarget=0;points=[[0,0.5],[1,0.5]];portConstraint=eastwest;top=0;left=0;right=0;bottom=0;html=1;" parent="T5jJRAGALwiK5fhTE4Fy-63" vertex="1">
          <mxGeometry y="210" width="340" height="70" as="geometry" />
        </mxCell>
        <mxCell id="T5jJRAGALwiK5fhTE4Fy-90" style="shape=partialRectangle;connectable=0;fillColor=none;top=0;left=0;bottom=0;right=0;editable=1;overflow=hidden;html=1;whiteSpace=wrap;" parent="T5jJRAGALwiK5fhTE4Fy-89" vertex="1">
          <mxGeometry width="60" height="70" as="geometry">
            <mxRectangle width="60" height="70" as="alternateBounds" />
          </mxGeometry>
        </mxCell>
        <mxCell id="T5jJRAGALwiK5fhTE4Fy-91" value="price" style="shape=partialRectangle;connectable=0;fillColor=none;top=0;left=0;bottom=0;right=0;align=left;spacingLeft=6;overflow=hidden;html=1;whiteSpace=wrap;" parent="T5jJRAGALwiK5fhTE4Fy-89" vertex="1">
          <mxGeometry x="60" width="100" height="70" as="geometry">
            <mxRectangle width="100" height="70" as="alternateBounds" />
          </mxGeometry>
        </mxCell>
        <mxCell id="T5jJRAGALwiK5fhTE4Fy-92" value="INT" style="shape=partialRectangle;connectable=0;fillColor=none;top=0;left=0;bottom=0;right=0;align=left;spacingLeft=6;overflow=hidden;html=1;whiteSpace=wrap;" parent="T5jJRAGALwiK5fhTE4Fy-89" vertex="1">
          <mxGeometry x="160" width="80" height="70" as="geometry">
            <mxRectangle width="80" height="70" as="alternateBounds" />
          </mxGeometry>
        </mxCell>
        <mxCell id="T5jJRAGALwiK5fhTE4Fy-93" value="(számított mező, a szállás elhagyása után változhat)" style="shape=partialRectangle;connectable=0;fillColor=none;top=0;left=0;bottom=0;right=0;align=left;spacingLeft=6;overflow=hidden;html=1;whiteSpace=wrap;" parent="T5jJRAGALwiK5fhTE4Fy-89" vertex="1">
          <mxGeometry x="240" width="100" height="70" as="geometry">
            <mxRectangle width="100" height="70" as="alternateBounds" />
          </mxGeometry>
        </mxCell>
        <mxCell id="T5jJRAGALwiK5fhTE4Fy-134" style="edgeStyle=orthogonalEdgeStyle;rounded=0;orthogonalLoop=1;jettySize=auto;html=1;exitX=1;exitY=0.5;exitDx=0;exitDy=0;endArrow=ERzeroToOne;endFill=0;startArrow=ERmany;startFill=0;entryX=1;entryY=0.5;entryDx=0;entryDy=0;" parent="1" source="T5jJRAGALwiK5fhTE4Fy-69" target="T5jJRAGALwiK5fhTE4Fy-26" edge="1">
          <mxGeometry relative="1" as="geometry">
            <mxPoint x="990" y="120" as="targetPoint" />
            <Array as="points">
              <mxPoint x="990" y="465" />
              <mxPoint x="990" y="195" />
            </Array>
          </mxGeometry>
        </mxCell>
        <mxCell id="T5jJRAGALwiK5fhTE4Fy-136" value="Room" style="shape=table;startSize=30;container=1;collapsible=1;childLayout=tableLayout;fixedRows=1;rowLines=0;fontStyle=1;align=center;resizeLast=1;html=1;whiteSpace=wrap;" parent="1" vertex="1">
          <mxGeometry x="90" y="440" width="350" height="190" as="geometry" />
        </mxCell>
        <mxCell id="T5jJRAGALwiK5fhTE4Fy-137" value="" style="shape=tableRow;horizontal=0;startSize=0;swimlaneHead=0;swimlaneBody=0;fillColor=none;collapsible=0;dropTarget=0;points=[[0,0.5],[1,0.5]];portConstraint=eastwest;top=0;left=0;right=0;bottom=0;html=1;" parent="T5jJRAGALwiK5fhTE4Fy-136" vertex="1">
          <mxGeometry y="30" width="350" height="30" as="geometry" />
        </mxCell>
        <mxCell id="T5jJRAGALwiK5fhTE4Fy-138" value="PK" style="shape=partialRectangle;connectable=0;fillColor=none;top=0;left=0;bottom=0;right=0;fontStyle=1;overflow=hidden;html=1;whiteSpace=wrap;" parent="T5jJRAGALwiK5fhTE4Fy-137" vertex="1">
          <mxGeometry width="60" height="30" as="geometry">
            <mxRectangle width="60" height="30" as="alternateBounds" />
          </mxGeometry>
        </mxCell>
        <mxCell id="T5jJRAGALwiK5fhTE4Fy-139" value="id" style="shape=partialRectangle;connectable=0;fillColor=none;top=0;left=0;bottom=0;right=0;align=left;spacingLeft=6;fontStyle=5;overflow=hidden;html=1;whiteSpace=wrap;" parent="T5jJRAGALwiK5fhTE4Fy-137" vertex="1">
          <mxGeometry x="60" width="100" height="30" as="geometry">
            <mxRectangle width="100" height="30" as="alternateBounds" />
          </mxGeometry>
        </mxCell>
        <mxCell id="T5jJRAGALwiK5fhTE4Fy-140" value="INT" style="shape=partialRectangle;connectable=0;fillColor=none;top=0;left=0;bottom=0;right=0;align=left;spacingLeft=6;fontStyle=5;overflow=hidden;html=1;whiteSpace=wrap;" parent="T5jJRAGALwiK5fhTE4Fy-137" vertex="1">
          <mxGeometry x="160" width="80" height="30" as="geometry">
            <mxRectangle width="80" height="30" as="alternateBounds" />
          </mxGeometry>
        </mxCell>
        <mxCell id="T5jJRAGALwiK5fhTE4Fy-141" value="autoincrement" style="shape=partialRectangle;connectable=0;fillColor=none;top=0;left=0;bottom=0;right=0;align=left;spacingLeft=6;fontStyle=5;overflow=hidden;html=1;whiteSpace=wrap;" parent="T5jJRAGALwiK5fhTE4Fy-137" vertex="1">
          <mxGeometry x="240" width="110" height="30" as="geometry">
            <mxRectangle width="110" height="30" as="alternateBounds" />
          </mxGeometry>
        </mxCell>
        <mxCell id="T5jJRAGALwiK5fhTE4Fy-142" value="" style="shape=tableRow;horizontal=0;startSize=0;swimlaneHead=0;swimlaneBody=0;fillColor=none;collapsible=0;dropTarget=0;points=[[0,0.5],[1,0.5]];portConstraint=eastwest;top=0;left=0;right=0;bottom=1;html=1;" parent="T5jJRAGALwiK5fhTE4Fy-136" vertex="1">
          <mxGeometry y="60" width="350" height="30" as="geometry" />
        </mxCell>
        <mxCell id="T5jJRAGALwiK5fhTE4Fy-143" value="FK" style="shape=partialRectangle;connectable=0;fillColor=none;top=0;left=0;bottom=0;right=0;fontStyle=1;overflow=hidden;html=1;whiteSpace=wrap;" parent="T5jJRAGALwiK5fhTE4Fy-142" vertex="1">
          <mxGeometry width="60" height="30" as="geometry">
            <mxRectangle width="60" height="30" as="alternateBounds" />
          </mxGeometry>
        </mxCell>
        <mxCell id="T5jJRAGALwiK5fhTE4Fy-144" value="room_type_id" style="shape=partialRectangle;connectable=0;fillColor=none;top=0;left=0;bottom=0;right=0;align=left;spacingLeft=6;fontStyle=5;overflow=hidden;html=1;whiteSpace=wrap;" parent="T5jJRAGALwiK5fhTE4Fy-142" vertex="1">
          <mxGeometry x="60" width="100" height="30" as="geometry">
            <mxRectangle width="100" height="30" as="alternateBounds" />
          </mxGeometry>
        </mxCell>
        <mxCell id="T5jJRAGALwiK5fhTE4Fy-145" value="INT" style="shape=partialRectangle;connectable=0;fillColor=none;top=0;left=0;bottom=0;right=0;align=left;spacingLeft=6;fontStyle=5;overflow=hidden;html=1;whiteSpace=wrap;" parent="T5jJRAGALwiK5fhTE4Fy-142" vertex="1">
          <mxGeometry x="160" width="80" height="30" as="geometry">
            <mxRectangle width="80" height="30" as="alternateBounds" />
          </mxGeometry>
        </mxCell>
        <mxCell id="T5jJRAGALwiK5fhTE4Fy-146" style="shape=partialRectangle;connectable=0;fillColor=none;top=0;left=0;bottom=0;right=0;align=left;spacingLeft=6;fontStyle=5;overflow=hidden;html=1;whiteSpace=wrap;" parent="T5jJRAGALwiK5fhTE4Fy-142" vertex="1">
          <mxGeometry x="240" width="110" height="30" as="geometry">
            <mxRectangle width="110" height="30" as="alternateBounds" />
          </mxGeometry>
        </mxCell>
        <mxCell id="T5jJRAGALwiK5fhTE4Fy-147" value="" style="shape=tableRow;horizontal=0;startSize=0;swimlaneHead=0;swimlaneBody=0;fillColor=none;collapsible=0;dropTarget=0;points=[[0,0.5],[1,0.5]];portConstraint=eastwest;top=0;left=0;right=0;bottom=0;html=1;" parent="T5jJRAGALwiK5fhTE4Fy-136" vertex="1">
          <mxGeometry y="90" width="350" height="30" as="geometry" />
        </mxCell>
        <mxCell id="T5jJRAGALwiK5fhTE4Fy-148" value="UK" style="shape=partialRectangle;connectable=0;fillColor=none;top=0;left=0;bottom=0;right=0;editable=1;overflow=hidden;html=1;whiteSpace=wrap;" parent="T5jJRAGALwiK5fhTE4Fy-147" vertex="1">
          <mxGeometry width="60" height="30" as="geometry">
            <mxRectangle width="60" height="30" as="alternateBounds" />
          </mxGeometry>
        </mxCell>
        <mxCell id="T5jJRAGALwiK5fhTE4Fy-149" value="room_number" style="shape=partialRectangle;connectable=0;fillColor=none;top=0;left=0;bottom=0;right=0;align=left;spacingLeft=6;overflow=hidden;html=1;whiteSpace=wrap;" parent="T5jJRAGALwiK5fhTE4Fy-147" vertex="1">
          <mxGeometry x="60" width="100" height="30" as="geometry">
            <mxRectangle width="100" height="30" as="alternateBounds" />
          </mxGeometry>
        </mxCell>
        <mxCell id="T5jJRAGALwiK5fhTE4Fy-150" value="VARCHAR" style="shape=partialRectangle;connectable=0;fillColor=none;top=0;left=0;bottom=0;right=0;align=left;spacingLeft=6;overflow=hidden;html=1;whiteSpace=wrap;" parent="T5jJRAGALwiK5fhTE4Fy-147" vertex="1">
          <mxGeometry x="160" width="80" height="30" as="geometry">
            <mxRectangle width="80" height="30" as="alternateBounds" />
          </mxGeometry>
        </mxCell>
        <mxCell id="T5jJRAGALwiK5fhTE4Fy-151" style="shape=partialRectangle;connectable=0;fillColor=none;top=0;left=0;bottom=0;right=0;align=left;spacingLeft=6;overflow=hidden;html=1;whiteSpace=wrap;" parent="T5jJRAGALwiK5fhTE4Fy-147" vertex="1">
          <mxGeometry x="240" width="110" height="30" as="geometry">
            <mxRectangle width="110" height="30" as="alternateBounds" />
          </mxGeometry>
        </mxCell>
        <mxCell id="T5jJRAGALwiK5fhTE4Fy-157" style="shape=tableRow;horizontal=0;startSize=0;swimlaneHead=0;swimlaneBody=0;fillColor=none;collapsible=0;dropTarget=0;points=[[0,0.5],[1,0.5]];portConstraint=eastwest;top=0;left=0;right=0;bottom=0;html=1;" parent="T5jJRAGALwiK5fhTE4Fy-136" vertex="1">
          <mxGeometry y="120" width="350" height="30" as="geometry" />
        </mxCell>
        <mxCell id="T5jJRAGALwiK5fhTE4Fy-158" style="shape=partialRectangle;connectable=0;fillColor=none;top=0;left=0;bottom=0;right=0;editable=1;overflow=hidden;html=1;whiteSpace=wrap;" parent="T5jJRAGALwiK5fhTE4Fy-157" vertex="1">
          <mxGeometry width="60" height="30" as="geometry">
            <mxRectangle width="60" height="30" as="alternateBounds" />
          </mxGeometry>
        </mxCell>
        <mxCell id="T5jJRAGALwiK5fhTE4Fy-159" value="is_in_order" style="shape=partialRectangle;connectable=0;fillColor=none;top=0;left=0;bottom=0;right=0;align=left;spacingLeft=6;overflow=hidden;html=1;whiteSpace=wrap;" parent="T5jJRAGALwiK5fhTE4Fy-157" vertex="1">
          <mxGeometry x="60" width="100" height="30" as="geometry">
            <mxRectangle width="100" height="30" as="alternateBounds" />
          </mxGeometry>
        </mxCell>
        <mxCell id="T5jJRAGALwiK5fhTE4Fy-160" value="BOOLEAN" style="shape=partialRectangle;connectable=0;fillColor=none;top=0;left=0;bottom=0;right=0;align=left;spacingLeft=6;overflow=hidden;html=1;whiteSpace=wrap;" parent="T5jJRAGALwiK5fhTE4Fy-157" vertex="1">
          <mxGeometry x="160" width="80" height="30" as="geometry">
            <mxRectangle width="80" height="30" as="alternateBounds" />
          </mxGeometry>
        </mxCell>
        <mxCell id="T5jJRAGALwiK5fhTE4Fy-161" value="= TRUE" style="shape=partialRectangle;connectable=0;fillColor=none;top=0;left=0;bottom=0;right=0;align=left;spacingLeft=6;overflow=hidden;html=1;whiteSpace=wrap;" parent="T5jJRAGALwiK5fhTE4Fy-157" vertex="1">
          <mxGeometry x="240" width="110" height="30" as="geometry">
            <mxRectangle width="110" height="30" as="alternateBounds" />
          </mxGeometry>
        </mxCell>
        <mxCell id="T5jJRAGALwiK5fhTE4Fy-152" style="shape=tableRow;horizontal=0;startSize=0;swimlaneHead=0;swimlaneBody=0;fillColor=none;collapsible=0;dropTarget=0;points=[[0,0.5],[1,0.5]];portConstraint=eastwest;top=0;left=0;right=0;bottom=0;html=1;" parent="T5jJRAGALwiK5fhTE4Fy-136" vertex="1">
          <mxGeometry y="150" width="350" height="40" as="geometry" />
        </mxCell>
        <mxCell id="T5jJRAGALwiK5fhTE4Fy-153" style="shape=partialRectangle;connectable=0;fillColor=none;top=0;left=0;bottom=0;right=0;editable=1;overflow=hidden;html=1;whiteSpace=wrap;" parent="T5jJRAGALwiK5fhTE4Fy-152" vertex="1">
          <mxGeometry width="60" height="40" as="geometry">
            <mxRectangle width="60" height="40" as="alternateBounds" />
          </mxGeometry>
        </mxCell>
        <mxCell id="T5jJRAGALwiK5fhTE4Fy-154" value="description" style="shape=partialRectangle;connectable=0;fillColor=none;top=0;left=0;bottom=0;right=0;align=left;spacingLeft=6;overflow=hidden;html=1;whiteSpace=wrap;" parent="T5jJRAGALwiK5fhTE4Fy-152" vertex="1">
          <mxGeometry x="60" width="100" height="40" as="geometry">
            <mxRectangle width="100" height="40" as="alternateBounds" />
          </mxGeometry>
        </mxCell>
        <mxCell id="T5jJRAGALwiK5fhTE4Fy-155" value="VARCHAR?" style="shape=partialRectangle;connectable=0;fillColor=none;top=0;left=0;bottom=0;right=0;align=left;spacingLeft=6;overflow=hidden;html=1;whiteSpace=wrap;" parent="T5jJRAGALwiK5fhTE4Fy-152" vertex="1">
          <mxGeometry x="160" width="80" height="40" as="geometry">
            <mxRectangle width="80" height="40" as="alternateBounds" />
          </mxGeometry>
        </mxCell>
        <mxCell id="T5jJRAGALwiK5fhTE4Fy-156" value="(javítandó hibák, ha vannak)" style="shape=partialRectangle;connectable=0;fillColor=none;top=0;left=0;bottom=0;right=0;align=left;spacingLeft=6;overflow=hidden;html=1;whiteSpace=wrap;" parent="T5jJRAGALwiK5fhTE4Fy-152" vertex="1">
          <mxGeometry x="240" width="110" height="40" as="geometry">
            <mxRectangle width="110" height="40" as="alternateBounds" />
          </mxGeometry>
        </mxCell>
        <mxCell id="T5jJRAGALwiK5fhTE4Fy-167" style="edgeStyle=orthogonalEdgeStyle;rounded=0;orthogonalLoop=1;jettySize=auto;html=1;exitX=0;exitY=0.5;exitDx=0;exitDy=0;entryX=1;entryY=0.5;entryDx=0;entryDy=0;endArrow=ERone;endFill=0;startArrow=ERmany;startFill=0;" parent="1" source="T5jJRAGALwiK5fhTE4Fy-123" target="T5jJRAGALwiK5fhTE4Fy-137" edge="1">
          <mxGeometry relative="1" as="geometry" />
        </mxCell>
        <mxCell id="T5jJRAGALwiK5fhTE4Fy-168" value="RoomType" style="shape=table;startSize=30;container=1;collapsible=1;childLayout=tableLayout;fixedRows=1;rowLines=0;fontStyle=1;align=center;resizeLast=1;html=1;whiteSpace=wrap;" parent="1" vertex="1">
          <mxGeometry x="90" y="680" width="350" height="270" as="geometry" />
        </mxCell>
        <mxCell id="T5jJRAGALwiK5fhTE4Fy-169" value="" style="shape=tableRow;horizontal=0;startSize=0;swimlaneHead=0;swimlaneBody=0;fillColor=none;collapsible=0;dropTarget=0;points=[[0,0.5],[1,0.5]];portConstraint=eastwest;top=0;left=0;right=0;bottom=1;html=1;" parent="T5jJRAGALwiK5fhTE4Fy-168" vertex="1">
          <mxGeometry y="30" width="350" height="30" as="geometry" />
        </mxCell>
        <mxCell id="T5jJRAGALwiK5fhTE4Fy-170" value="PK" style="shape=partialRectangle;connectable=0;fillColor=none;top=0;left=0;bottom=0;right=0;fontStyle=1;overflow=hidden;html=1;whiteSpace=wrap;" parent="T5jJRAGALwiK5fhTE4Fy-169" vertex="1">
          <mxGeometry width="60" height="30" as="geometry">
            <mxRectangle width="60" height="30" as="alternateBounds" />
          </mxGeometry>
        </mxCell>
        <mxCell id="T5jJRAGALwiK5fhTE4Fy-171" value="id" style="shape=partialRectangle;connectable=0;fillColor=none;top=0;left=0;bottom=0;right=0;align=left;spacingLeft=6;fontStyle=5;overflow=hidden;html=1;whiteSpace=wrap;" parent="T5jJRAGALwiK5fhTE4Fy-169" vertex="1">
          <mxGeometry x="60" width="100" height="30" as="geometry">
            <mxRectangle width="100" height="30" as="alternateBounds" />
          </mxGeometry>
        </mxCell>
        <mxCell id="T5jJRAGALwiK5fhTE4Fy-172" value="INT" style="shape=partialRectangle;connectable=0;fillColor=none;top=0;left=0;bottom=0;right=0;align=left;spacingLeft=6;fontStyle=5;overflow=hidden;html=1;whiteSpace=wrap;" parent="T5jJRAGALwiK5fhTE4Fy-169" vertex="1">
          <mxGeometry x="160" width="80" height="30" as="geometry">
            <mxRectangle width="80" height="30" as="alternateBounds" />
          </mxGeometry>
        </mxCell>
        <mxCell id="T5jJRAGALwiK5fhTE4Fy-173" value="autoincrement" style="shape=partialRectangle;connectable=0;fillColor=none;top=0;left=0;bottom=0;right=0;align=left;spacingLeft=6;fontStyle=5;overflow=hidden;html=1;whiteSpace=wrap;" parent="T5jJRAGALwiK5fhTE4Fy-169" vertex="1">
          <mxGeometry x="240" width="110" height="30" as="geometry">
            <mxRectangle width="110" height="30" as="alternateBounds" />
          </mxGeometry>
        </mxCell>
        <mxCell id="T5jJRAGALwiK5fhTE4Fy-179" value="" style="shape=tableRow;horizontal=0;startSize=0;swimlaneHead=0;swimlaneBody=0;fillColor=none;collapsible=0;dropTarget=0;points=[[0,0.5],[1,0.5]];portConstraint=eastwest;top=0;left=0;right=0;bottom=0;html=1;" parent="T5jJRAGALwiK5fhTE4Fy-168" vertex="1">
          <mxGeometry y="60" width="350" height="30" as="geometry" />
        </mxCell>
        <mxCell id="T5jJRAGALwiK5fhTE4Fy-180" value="" style="shape=partialRectangle;connectable=0;fillColor=none;top=0;left=0;bottom=0;right=0;editable=1;overflow=hidden;html=1;whiteSpace=wrap;" parent="T5jJRAGALwiK5fhTE4Fy-179" vertex="1">
          <mxGeometry width="60" height="30" as="geometry">
            <mxRectangle width="60" height="30" as="alternateBounds" />
          </mxGeometry>
        </mxCell>
        <mxCell id="T5jJRAGALwiK5fhTE4Fy-181" value="name" style="shape=partialRectangle;connectable=0;fillColor=none;top=0;left=0;bottom=0;right=0;align=left;spacingLeft=6;overflow=hidden;html=1;whiteSpace=wrap;" parent="T5jJRAGALwiK5fhTE4Fy-179" vertex="1">
          <mxGeometry x="60" width="100" height="30" as="geometry">
            <mxRectangle width="100" height="30" as="alternateBounds" />
          </mxGeometry>
        </mxCell>
        <mxCell id="T5jJRAGALwiK5fhTE4Fy-182" value="VARCHAR" style="shape=partialRectangle;connectable=0;fillColor=none;top=0;left=0;bottom=0;right=0;align=left;spacingLeft=6;overflow=hidden;html=1;whiteSpace=wrap;" parent="T5jJRAGALwiK5fhTE4Fy-179" vertex="1">
          <mxGeometry x="160" width="80" height="30" as="geometry">
            <mxRectangle width="80" height="30" as="alternateBounds" />
          </mxGeometry>
        </mxCell>
        <mxCell id="T5jJRAGALwiK5fhTE4Fy-183" style="shape=partialRectangle;connectable=0;fillColor=none;top=0;left=0;bottom=0;right=0;align=left;spacingLeft=6;overflow=hidden;html=1;whiteSpace=wrap;" parent="T5jJRAGALwiK5fhTE4Fy-179" vertex="1">
          <mxGeometry x="240" width="110" height="30" as="geometry">
            <mxRectangle width="110" height="30" as="alternateBounds" />
          </mxGeometry>
        </mxCell>
        <mxCell id="T5jJRAGALwiK5fhTE4Fy-184" value="" style="shape=tableRow;horizontal=0;startSize=0;swimlaneHead=0;swimlaneBody=0;fillColor=none;collapsible=0;dropTarget=0;points=[[0,0.5],[1,0.5]];portConstraint=eastwest;top=0;left=0;right=0;bottom=0;html=1;" parent="T5jJRAGALwiK5fhTE4Fy-168" vertex="1">
          <mxGeometry y="90" width="350" height="30" as="geometry" />
        </mxCell>
        <mxCell id="T5jJRAGALwiK5fhTE4Fy-185" value="" style="shape=partialRectangle;connectable=0;fillColor=none;top=0;left=0;bottom=0;right=0;editable=1;overflow=hidden;html=1;whiteSpace=wrap;" parent="T5jJRAGALwiK5fhTE4Fy-184" vertex="1">
          <mxGeometry width="60" height="30" as="geometry">
            <mxRectangle width="60" height="30" as="alternateBounds" />
          </mxGeometry>
        </mxCell>
        <mxCell id="T5jJRAGALwiK5fhTE4Fy-186" value="bedrooms" style="shape=partialRectangle;connectable=0;fillColor=none;top=0;left=0;bottom=0;right=0;align=left;spacingLeft=6;overflow=hidden;html=1;whiteSpace=wrap;" parent="T5jJRAGALwiK5fhTE4Fy-184" vertex="1">
          <mxGeometry x="60" width="100" height="30" as="geometry">
            <mxRectangle width="100" height="30" as="alternateBounds" />
          </mxGeometry>
        </mxCell>
        <mxCell id="T5jJRAGALwiK5fhTE4Fy-187" value="INT" style="shape=partialRectangle;connectable=0;fillColor=none;top=0;left=0;bottom=0;right=0;align=left;spacingLeft=6;overflow=hidden;html=1;whiteSpace=wrap;" parent="T5jJRAGALwiK5fhTE4Fy-184" vertex="1">
          <mxGeometry x="160" width="80" height="30" as="geometry">
            <mxRectangle width="80" height="30" as="alternateBounds" />
          </mxGeometry>
        </mxCell>
        <mxCell id="T5jJRAGALwiK5fhTE4Fy-188" style="shape=partialRectangle;connectable=0;fillColor=none;top=0;left=0;bottom=0;right=0;align=left;spacingLeft=6;overflow=hidden;html=1;whiteSpace=wrap;" parent="T5jJRAGALwiK5fhTE4Fy-184" vertex="1">
          <mxGeometry x="240" width="110" height="30" as="geometry">
            <mxRectangle width="110" height="30" as="alternateBounds" />
          </mxGeometry>
        </mxCell>
        <mxCell id="T5jJRAGALwiK5fhTE4Fy-189" style="shape=tableRow;horizontal=0;startSize=0;swimlaneHead=0;swimlaneBody=0;fillColor=none;collapsible=0;dropTarget=0;points=[[0,0.5],[1,0.5]];portConstraint=eastwest;top=0;left=0;right=0;bottom=0;html=1;" parent="T5jJRAGALwiK5fhTE4Fy-168" vertex="1">
          <mxGeometry y="120" width="350" height="30" as="geometry" />
        </mxCell>
        <mxCell id="T5jJRAGALwiK5fhTE4Fy-190" style="shape=partialRectangle;connectable=0;fillColor=none;top=0;left=0;bottom=0;right=0;editable=1;overflow=hidden;html=1;whiteSpace=wrap;" parent="T5jJRAGALwiK5fhTE4Fy-189" vertex="1">
          <mxGeometry width="60" height="30" as="geometry">
            <mxRectangle width="60" height="30" as="alternateBounds" />
          </mxGeometry>
        </mxCell>
        <mxCell id="T5jJRAGALwiK5fhTE4Fy-191" value="single_beds" style="shape=partialRectangle;connectable=0;fillColor=none;top=0;left=0;bottom=0;right=0;align=left;spacingLeft=6;overflow=hidden;html=1;whiteSpace=wrap;" parent="T5jJRAGALwiK5fhTE4Fy-189" vertex="1">
          <mxGeometry x="60" width="100" height="30" as="geometry">
            <mxRectangle width="100" height="30" as="alternateBounds" />
          </mxGeometry>
        </mxCell>
        <mxCell id="T5jJRAGALwiK5fhTE4Fy-192" value="INT" style="shape=partialRectangle;connectable=0;fillColor=none;top=0;left=0;bottom=0;right=0;align=left;spacingLeft=6;overflow=hidden;html=1;whiteSpace=wrap;" parent="T5jJRAGALwiK5fhTE4Fy-189" vertex="1">
          <mxGeometry x="160" width="80" height="30" as="geometry">
            <mxRectangle width="80" height="30" as="alternateBounds" />
          </mxGeometry>
        </mxCell>
        <mxCell id="T5jJRAGALwiK5fhTE4Fy-193" style="shape=partialRectangle;connectable=0;fillColor=none;top=0;left=0;bottom=0;right=0;align=left;spacingLeft=6;overflow=hidden;html=1;whiteSpace=wrap;" parent="T5jJRAGALwiK5fhTE4Fy-189" vertex="1">
          <mxGeometry x="240" width="110" height="30" as="geometry">
            <mxRectangle width="110" height="30" as="alternateBounds" />
          </mxGeometry>
        </mxCell>
        <mxCell id="T5jJRAGALwiK5fhTE4Fy-194" style="shape=tableRow;horizontal=0;startSize=0;swimlaneHead=0;swimlaneBody=0;fillColor=none;collapsible=0;dropTarget=0;points=[[0,0.5],[1,0.5]];portConstraint=eastwest;top=0;left=0;right=0;bottom=0;html=1;" parent="T5jJRAGALwiK5fhTE4Fy-168" vertex="1">
          <mxGeometry y="150" width="350" height="30" as="geometry" />
        </mxCell>
        <mxCell id="T5jJRAGALwiK5fhTE4Fy-195" style="shape=partialRectangle;connectable=0;fillColor=none;top=0;left=0;bottom=0;right=0;editable=1;overflow=hidden;html=1;whiteSpace=wrap;" parent="T5jJRAGALwiK5fhTE4Fy-194" vertex="1">
          <mxGeometry width="60" height="30" as="geometry">
            <mxRectangle width="60" height="30" as="alternateBounds" />
          </mxGeometry>
        </mxCell>
        <mxCell id="T5jJRAGALwiK5fhTE4Fy-196" value="double_beds" style="shape=partialRectangle;connectable=0;fillColor=none;top=0;left=0;bottom=0;right=0;align=left;spacingLeft=6;overflow=hidden;html=1;whiteSpace=wrap;" parent="T5jJRAGALwiK5fhTE4Fy-194" vertex="1">
          <mxGeometry x="60" width="100" height="30" as="geometry">
            <mxRectangle width="100" height="30" as="alternateBounds" />
          </mxGeometry>
        </mxCell>
        <mxCell id="T5jJRAGALwiK5fhTE4Fy-197" value="INT" style="shape=partialRectangle;connectable=0;fillColor=none;top=0;left=0;bottom=0;right=0;align=left;spacingLeft=6;overflow=hidden;html=1;whiteSpace=wrap;" parent="T5jJRAGALwiK5fhTE4Fy-194" vertex="1">
          <mxGeometry x="160" width="80" height="30" as="geometry">
            <mxRectangle width="80" height="30" as="alternateBounds" />
          </mxGeometry>
        </mxCell>
        <mxCell id="T5jJRAGALwiK5fhTE4Fy-198" style="shape=partialRectangle;connectable=0;fillColor=none;top=0;left=0;bottom=0;right=0;align=left;spacingLeft=6;overflow=hidden;html=1;whiteSpace=wrap;" parent="T5jJRAGALwiK5fhTE4Fy-194" vertex="1">
          <mxGeometry x="240" width="110" height="30" as="geometry">
            <mxRectangle width="110" height="30" as="alternateBounds" />
          </mxGeometry>
        </mxCell>
        <mxCell id="T5jJRAGALwiK5fhTE4Fy-199" style="shape=tableRow;horizontal=0;startSize=0;swimlaneHead=0;swimlaneBody=0;fillColor=none;collapsible=0;dropTarget=0;points=[[0,0.5],[1,0.5]];portConstraint=eastwest;top=0;left=0;right=0;bottom=0;html=1;" parent="T5jJRAGALwiK5fhTE4Fy-168" vertex="1">
          <mxGeometry y="180" width="350" height="30" as="geometry" />
        </mxCell>
        <mxCell id="T5jJRAGALwiK5fhTE4Fy-200" style="shape=partialRectangle;connectable=0;fillColor=none;top=0;left=0;bottom=0;right=0;editable=1;overflow=hidden;html=1;whiteSpace=wrap;" parent="T5jJRAGALwiK5fhTE4Fy-199" vertex="1">
          <mxGeometry width="60" height="30" as="geometry">
            <mxRectangle width="60" height="30" as="alternateBounds" />
          </mxGeometry>
        </mxCell>
        <mxCell id="T5jJRAGALwiK5fhTE4Fy-201" value="baby_beds" style="shape=partialRectangle;connectable=0;fillColor=none;top=0;left=0;bottom=0;right=0;align=left;spacingLeft=6;overflow=hidden;html=1;whiteSpace=wrap;" parent="T5jJRAGALwiK5fhTE4Fy-199" vertex="1">
          <mxGeometry x="60" width="100" height="30" as="geometry">
            <mxRectangle width="100" height="30" as="alternateBounds" />
          </mxGeometry>
        </mxCell>
        <mxCell id="T5jJRAGALwiK5fhTE4Fy-202" value="INT" style="shape=partialRectangle;connectable=0;fillColor=none;top=0;left=0;bottom=0;right=0;align=left;spacingLeft=6;overflow=hidden;html=1;whiteSpace=wrap;" parent="T5jJRAGALwiK5fhTE4Fy-199" vertex="1">
          <mxGeometry x="160" width="80" height="30" as="geometry">
            <mxRectangle width="80" height="30" as="alternateBounds" />
          </mxGeometry>
        </mxCell>
        <mxCell id="T5jJRAGALwiK5fhTE4Fy-203" value="" style="shape=partialRectangle;connectable=0;fillColor=none;top=0;left=0;bottom=0;right=0;align=left;spacingLeft=6;overflow=hidden;html=1;whiteSpace=wrap;" parent="T5jJRAGALwiK5fhTE4Fy-199" vertex="1">
          <mxGeometry x="240" width="110" height="30" as="geometry">
            <mxRectangle width="110" height="30" as="alternateBounds" />
          </mxGeometry>
        </mxCell>
        <mxCell id="JubQmAESOsdl1tK2nNzR-2" style="shape=tableRow;horizontal=0;startSize=0;swimlaneHead=0;swimlaneBody=0;fillColor=none;collapsible=0;dropTarget=0;points=[[0,0.5],[1,0.5]];portConstraint=eastwest;top=0;left=0;right=0;bottom=0;html=1;" parent="T5jJRAGALwiK5fhTE4Fy-168" vertex="1">
          <mxGeometry y="210" width="350" height="30" as="geometry" />
        </mxCell>
        <mxCell id="JubQmAESOsdl1tK2nNzR-3" style="shape=partialRectangle;connectable=0;fillColor=none;top=0;left=0;bottom=0;right=0;editable=1;overflow=hidden;html=1;whiteSpace=wrap;" parent="JubQmAESOsdl1tK2nNzR-2" vertex="1">
          <mxGeometry width="60" height="30" as="geometry">
            <mxRectangle width="60" height="30" as="alternateBounds" />
          </mxGeometry>
        </mxCell>
        <mxCell id="JubQmAESOsdl1tK2nNzR-4" value="daily_price" style="shape=partialRectangle;connectable=0;fillColor=none;top=0;left=0;bottom=0;right=0;align=left;spacingLeft=6;overflow=hidden;html=1;whiteSpace=wrap;" parent="JubQmAESOsdl1tK2nNzR-2" vertex="1">
          <mxGeometry x="60" width="100" height="30" as="geometry">
            <mxRectangle width="100" height="30" as="alternateBounds" />
          </mxGeometry>
        </mxCell>
        <mxCell id="JubQmAESOsdl1tK2nNzR-5" value="INT" style="shape=partialRectangle;connectable=0;fillColor=none;top=0;left=0;bottom=0;right=0;align=left;spacingLeft=6;overflow=hidden;html=1;whiteSpace=wrap;" parent="JubQmAESOsdl1tK2nNzR-2" vertex="1">
          <mxGeometry x="160" width="80" height="30" as="geometry">
            <mxRectangle width="80" height="30" as="alternateBounds" />
          </mxGeometry>
        </mxCell>
        <mxCell id="JubQmAESOsdl1tK2nNzR-6" style="shape=partialRectangle;connectable=0;fillColor=none;top=0;left=0;bottom=0;right=0;align=left;spacingLeft=6;overflow=hidden;html=1;whiteSpace=wrap;" parent="JubQmAESOsdl1tK2nNzR-2" vertex="1">
          <mxGeometry x="240" width="110" height="30" as="geometry">
            <mxRectangle width="110" height="30" as="alternateBounds" />
          </mxGeometry>
        </mxCell>
        <mxCell id="JubQmAESOsdl1tK2nNzR-7" style="shape=tableRow;horizontal=0;startSize=0;swimlaneHead=0;swimlaneBody=0;fillColor=none;collapsible=0;dropTarget=0;points=[[0,0.5],[1,0.5]];portConstraint=eastwest;top=0;left=0;right=0;bottom=0;html=1;" parent="T5jJRAGALwiK5fhTE4Fy-168" vertex="1">
          <mxGeometry y="240" width="350" height="30" as="geometry" />
        </mxCell>
        <mxCell id="JubQmAESOsdl1tK2nNzR-8" style="shape=partialRectangle;connectable=0;fillColor=none;top=0;left=0;bottom=0;right=0;editable=1;overflow=hidden;html=1;whiteSpace=wrap;" parent="JubQmAESOsdl1tK2nNzR-7" vertex="1">
          <mxGeometry width="60" height="30" as="geometry">
            <mxRectangle width="60" height="30" as="alternateBounds" />
          </mxGeometry>
        </mxCell>
        <mxCell id="JubQmAESOsdl1tK2nNzR-9" value="description" style="shape=partialRectangle;connectable=0;fillColor=none;top=0;left=0;bottom=0;right=0;align=left;spacingLeft=6;overflow=hidden;html=1;whiteSpace=wrap;" parent="JubQmAESOsdl1tK2nNzR-7" vertex="1">
          <mxGeometry x="60" width="100" height="30" as="geometry">
            <mxRectangle width="100" height="30" as="alternateBounds" />
          </mxGeometry>
        </mxCell>
        <mxCell id="JubQmAESOsdl1tK2nNzR-10" value="VARCHAR" style="shape=partialRectangle;connectable=0;fillColor=none;top=0;left=0;bottom=0;right=0;align=left;spacingLeft=6;overflow=hidden;html=1;whiteSpace=wrap;" parent="JubQmAESOsdl1tK2nNzR-7" vertex="1">
          <mxGeometry x="160" width="80" height="30" as="geometry">
            <mxRectangle width="80" height="30" as="alternateBounds" />
          </mxGeometry>
        </mxCell>
        <mxCell id="JubQmAESOsdl1tK2nNzR-11" style="shape=partialRectangle;connectable=0;fillColor=none;top=0;left=0;bottom=0;right=0;align=left;spacingLeft=6;overflow=hidden;html=1;whiteSpace=wrap;" parent="JubQmAESOsdl1tK2nNzR-7" vertex="1">
          <mxGeometry x="240" width="110" height="30" as="geometry">
            <mxRectangle width="110" height="30" as="alternateBounds" />
          </mxGeometry>
        </mxCell>
        <mxCell id="JubQmAESOsdl1tK2nNzR-1" style="edgeStyle=orthogonalEdgeStyle;rounded=0;orthogonalLoop=1;jettySize=auto;html=1;exitX=0;exitY=0.5;exitDx=0;exitDy=0;entryX=0;entryY=0.5;entryDx=0;entryDy=0;endArrow=ERone;endFill=0;startArrow=ERmany;startFill=0;" parent="1" source="T5jJRAGALwiK5fhTE4Fy-142" target="T5jJRAGALwiK5fhTE4Fy-169" edge="1">
          <mxGeometry relative="1" as="geometry">
            <Array as="points">
              <mxPoint x="30" y="515" />
              <mxPoint x="30" y="725" />
            </Array>
          </mxGeometry>
        </mxCell>
      </root>
    </mxGraphModel>
  </diagram>
</mxfile>
